<svg width="90" height="120" viewBox="0 0 90 120" fill="none" xmlns="http://www.w3.org/2000/svg">
<rect x="0.444444" y="0.444444" width="89.1111" height="119.111" rx="3.55556" stroke="#6F6F6F" stroke-width="0.888889" stroke-dasharray="1.78 1.78"/>
<path d="M35.1113 40.8519C34.1093 40.8519 33.1485 41.2577 32.44 41.98C31.7315 42.7024 31.3335 43.6821 31.3335 44.7037V56.2593C31.3335 57.2808 31.7315 58.2606 32.44 58.9829C33.1485 59.7053 34.1093 60.1111 35.1113 60.1111H57.7779C58.7799 60.1111 59.7408 59.7053 60.4492 58.9829C61.1577 58.2606 61.5557 57.2808 61.5557 56.2593V44.7037C61.5557 43.6821 61.1577 42.7024 60.4492 41.98C59.7408 41.2577 58.7799 40.8519 57.7779 40.8519H55.5642C54.5623 40.8516 53.6016 40.4457 52.8933 39.7233L51.3293 38.1286C50.621 37.4062 49.6602 37.0002 48.6584 37H44.2308C43.229 37.0002 42.2682 37.4062 41.5599 38.1286L39.9959 39.7233C39.2876 40.4457 38.3269 40.8516 37.3251 40.8519H35.1113ZM36.0557 44.7037C35.8052 44.7037 35.565 44.6022 35.3879 44.4217C35.2108 44.2411 35.1113 43.9961 35.1113 43.7407C35.1113 43.4853 35.2108 43.2404 35.3879 43.0598C35.565 42.8792 35.8052 42.7778 36.0557 42.7778C36.3062 42.7778 36.5464 42.8792 36.7235 43.0598C36.9007 43.2404 37.0002 43.4853 37.0002 43.7407C37.0002 43.9961 36.9007 44.2411 36.7235 44.4217C36.5464 44.6022 36.3062 44.7037 36.0557 44.7037ZM53.0557 49.5185C53.0557 51.3063 52.3592 53.0208 51.1194 54.2849C49.8795 55.5491 48.198 56.2593 46.4446 56.2593C44.6912 56.2593 43.0097 55.5491 41.7698 54.2849C40.53 53.0208 39.8335 51.3063 39.8335 49.5185C39.8335 47.7308 40.53 46.0162 41.7698 44.7521C43.0097 43.488 44.6912 42.7778 46.4446 42.7778C48.198 42.7778 49.8795 43.488 51.1194 44.7521C52.3592 46.0162 53.0557 47.7308 53.0557 49.5185Z" fill="#6F6F6F"/>
<path d="M20.5026 80L23.2226 72.55H24.0826L26.8026 80H25.9626L25.3226 78.18H21.9926L21.3426 80H20.5026ZM22.2526 77.43H25.0426L23.5326 73.15H23.7726L22.2526 77.43ZM29.9107 80.12C29.4107 80.12 28.9607 80 28.5607 79.76C28.1607 79.5133 27.844 79.18 27.6107 78.76C27.384 78.3333 27.2707 77.8533 27.2707 77.32C27.2707 76.78 27.384 76.3 27.6107 75.88C27.844 75.46 28.1574 75.13 28.5507 74.89C28.9507 74.6433 29.404 74.52 29.9107 74.52C30.3707 74.52 30.7807 74.62 31.1407 74.82C31.5007 75.02 31.784 75.29 31.9907 75.63L31.8707 75.84V72.43H32.6207V80H31.8707V78.8L31.9907 78.91C31.804 79.2967 31.524 79.5967 31.1507 79.81C30.784 80.0167 30.3707 80.12 29.9107 80.12ZM29.9507 79.37C30.3107 79.37 30.634 79.28 30.9207 79.1C31.214 78.92 31.444 78.6767 31.6107 78.37C31.784 78.0567 31.8707 77.7067 31.8707 77.32C31.8707 76.9333 31.784 76.5867 31.6107 76.28C31.444 75.9667 31.214 75.72 30.9207 75.54C30.634 75.36 30.3107 75.27 29.9507 75.27C29.5974 75.27 29.2774 75.36 28.9907 75.54C28.704 75.72 28.4774 75.9633 28.3107 76.27C28.1507 76.5767 28.0707 76.9267 28.0707 77.32C28.0707 77.7067 28.1507 78.0567 28.3107 78.37C28.4774 78.6767 28.7007 78.92 28.9807 79.1C29.2674 79.28 29.5907 79.37 29.9507 79.37ZM36.5806 80.12C36.0806 80.12 35.6306 80 35.2306 79.76C34.8306 79.5133 34.514 79.18 34.2806 78.76C34.054 78.3333 33.9406 77.8533 33.9406 77.32C33.9406 76.78 34.054 76.3 34.2806 75.88C34.514 75.46 34.8273 75.13 35.2206 74.89C35.6206 74.6433 36.074 74.52 36.5806 74.52C37.0406 74.52 37.4506 74.62 37.8106 74.82C38.1706 75.02 38.454 75.29 38.6606 75.63L38.5406 75.84V72.43H39.2906V80H38.5406V78.8L38.6606 78.91C38.474 79.2967 38.194 79.5967 37.8206 79.81C37.454 80.0167 37.0406 80.12 36.5806 80.12ZM36.6206 79.37C36.9806 79.37 37.304 79.28 37.5906 79.1C37.884 78.92 38.114 78.6767 38.2806 78.37C38.454 78.0567 38.5406 77.7067 38.5406 77.32C38.5406 76.9333 38.454 76.5867 38.2806 76.28C38.114 75.9667 37.884 75.72 37.5906 75.54C37.304 75.36 36.9806 75.27 36.6206 75.27C36.2673 75.27 35.9473 75.36 35.6606 75.54C35.374 75.72 35.1473 75.9633 34.9806 76.27C34.8206 76.5767 34.7406 76.9267 34.7406 77.32C34.7406 77.7067 34.8206 78.0567 34.9806 78.37C35.1473 78.6767 35.3706 78.92 35.6506 79.1C35.9373 79.28 36.2606 79.37 36.6206 79.37ZM42.6398 80V72.55H45.1998C45.6864 72.55 46.1131 72.6467 46.4798 72.84C46.8464 73.0267 47.1298 73.2933 47.3298 73.64C47.5364 73.98 47.6398 74.3767 47.6398 74.83C47.6398 75.2833 47.5364 75.68 47.3298 76.02C47.1298 76.36 46.8464 76.6267 46.4798 76.82C46.1198 77.0067 45.6931 77.1 45.1998 77.1H43.4398V80H42.6398ZM43.4398 76.35H45.2398C45.5598 76.35 45.8398 76.29 46.0798 76.17C46.3198 76.0433 46.5064 75.8667 46.6398 75.64C46.7731 75.4067 46.8398 75.1333 46.8398 74.82C46.8398 74.5067 46.7731 74.2367 46.6398 74.01C46.5064 73.7833 46.3198 73.61 46.0798 73.49C45.8398 73.3633 45.5598 73.3 45.2398 73.3H43.4398V76.35ZM48.9555 80V72.43H49.7055V75.68L49.5355 75.64C49.6689 75.2933 49.8855 75.02 50.1855 74.82C50.4922 74.62 50.8455 74.52 51.2455 74.52C51.6255 74.52 51.9655 74.6067 52.2655 74.78C52.5722 74.9533 52.8122 75.1933 52.9855 75.5C53.1655 75.8 53.2555 76.14 53.2555 76.52V80H52.5055V76.81C52.5055 76.4833 52.4455 76.2067 52.3255 75.98C52.2055 75.7533 52.0389 75.58 51.8255 75.46C51.6189 75.3333 51.3822 75.27 51.1155 75.27C50.8489 75.27 50.6089 75.3333 50.3955 75.46C50.1822 75.58 50.0122 75.7567 49.8855 75.99C49.7655 76.2167 49.7055 76.49 49.7055 76.81V80H48.9555ZM57.198 80.12C56.6913 80.12 56.2313 80 55.818 79.76C55.4046 79.5133 55.0746 79.18 54.828 78.76C54.588 78.3333 54.468 77.85 54.468 77.31C54.468 76.7767 54.588 76.3 54.828 75.88C55.068 75.46 55.3913 75.13 55.798 74.89C56.2113 74.6433 56.678 74.52 57.198 74.52C57.718 74.52 58.1813 74.64 58.588 74.88C59.0013 75.12 59.3246 75.45 59.558 75.87C59.798 76.29 59.918 76.77 59.918 77.31C59.918 77.8567 59.7946 78.3433 59.548 78.77C59.3013 79.19 58.9713 79.52 58.558 79.76C58.1513 80 57.698 80.12 57.198 80.12ZM57.198 79.37C57.558 79.37 57.8813 79.28 58.168 79.1C58.4613 78.92 58.6913 78.6733 58.858 78.36C59.0313 78.0467 59.118 77.6967 59.118 77.31C59.118 76.9233 59.0313 76.5767 58.858 76.27C58.6913 75.9633 58.4613 75.72 58.168 75.54C57.8813 75.36 57.558 75.27 57.198 75.27C56.838 75.27 56.5113 75.36 56.218 75.54C55.9313 75.72 55.7013 75.9633 55.528 76.27C55.3546 76.5767 55.268 76.9233 55.268 77.31C55.268 77.6967 55.3546 78.0467 55.528 78.36C55.7013 78.6733 55.9313 78.92 56.218 79.1C56.5113 79.28 56.838 79.37 57.198 79.37ZM63.193 80.06C62.713 80.06 62.343 79.92 62.083 79.64C61.823 79.36 61.693 78.96 61.693 78.44V75.39H60.703V74.64H60.953C61.1797 74.64 61.3597 74.5667 61.493 74.42C61.6264 74.2667 61.693 74.0767 61.693 73.85V73.4H62.443V74.64H63.623V75.39H62.443V78.44C62.443 78.62 62.4697 78.78 62.523 78.92C62.5764 79.0533 62.6664 79.16 62.793 79.24C62.9264 79.32 63.103 79.36 63.323 79.36C63.3764 79.36 63.4397 79.3567 63.513 79.35C63.5864 79.3433 63.6497 79.3367 63.703 79.33V80C63.623 80.02 63.533 80.0333 63.433 80.04C63.333 80.0533 63.253 80.06 63.193 80.06ZM67.3347 80.12C66.828 80.12 66.368 80 65.9547 79.76C65.5414 79.5133 65.2114 79.18 64.9647 78.76C64.7247 78.3333 64.6047 77.85 64.6047 77.31C64.6047 76.7767 64.7247 76.3 64.9647 75.88C65.2047 75.46 65.528 75.13 65.9347 74.89C66.348 74.6433 66.8147 74.52 67.3347 74.52C67.8547 74.52 68.318 74.64 68.7247 74.88C69.138 75.12 69.4614 75.45 69.6947 75.87C69.9347 76.29 70.0547 76.77 70.0547 77.31C70.0547 77.8567 69.9314 78.3433 69.6847 78.77C69.438 79.19 69.108 79.52 68.6947 79.76C68.288 80 67.8347 80.12 67.3347 80.12ZM67.3347 79.37C67.6947 79.37 68.018 79.28 68.3047 79.1C68.598 78.92 68.828 78.6733 68.9947 78.36C69.168 78.0467 69.2547 77.6967 69.2547 77.31C69.2547 76.9233 69.168 76.5767 68.9947 76.27C68.828 75.9633 68.598 75.72 68.3047 75.54C68.018 75.36 67.6947 75.27 67.3347 75.27C66.9747 75.27 66.648 75.36 66.3547 75.54C66.068 75.72 65.838 75.9633 65.6647 76.27C65.4914 76.5767 65.4047 76.9233 65.4047 77.31C65.4047 77.6967 65.4914 78.0467 65.6647 78.36C65.838 78.6733 66.068 78.92 66.3547 79.1C66.648 79.28 66.9747 79.37 67.3347 79.37Z" fill="#6F6F6F"/>
</svg>
