<svg width="250" height="288" viewBox="0 0 250 288" fill="none" xmlns="http://www.w3.org/2000/svg">
<g clip-path="url(#clip0_1674_786)">
<path d="M14.1196 226.262C12.8936 226.262 11.8209 225.865 10.9084 225.078C9.99588 224.291 9.53614 223.183 9.53614 221.762C9.53614 220.502 9.97498 219.443 10.8596 218.586C11.7443 217.729 12.831 217.297 14.1127 217.297C15.3804 217.297 16.4462 217.729 17.3099 218.586C18.1737 219.443 18.6056 220.502 18.6056 221.762C18.6056 223.163 18.1528 224.263 17.2473 225.057C16.3487 225.865 15.3038 226.262 14.1196 226.262Z" fill="#EBEBEB"/>
<path d="M0 191.273C0 189.427 0.599057 187.553 1.7902 185.651C2.98135 183.75 4.7228 182.183 7.01454 180.936C9.30628 179.689 11.9742 179.069 15.0252 179.069C17.8602 179.069 20.3679 179.591 22.5413 180.629C24.7146 181.674 26.3933 183.088 27.5775 184.878C28.7617 186.669 29.3538 188.619 29.3538 190.716C29.3538 192.373 29.0194 193.822 28.3437 195.069C27.6681 196.316 26.867 197.389 25.9336 198.294C25.0071 199.2 23.3353 200.725 20.9322 202.864C20.2634 203.47 19.734 203.999 19.33 204.452C18.926 204.912 18.6334 205.33 18.4314 205.706C18.2364 206.089 18.0832 206.465 17.9787 206.841C17.8742 207.218 17.707 207.886 17.4911 208.841C17.1219 210.868 15.9516 211.878 14.0012 211.878C12.9842 211.878 12.1274 211.543 11.4308 210.882C10.7343 210.22 10.386 209.238 10.386 207.935C10.386 206.298 10.6437 204.884 11.1522 203.686C11.6607 202.488 12.3364 201.436 13.1792 200.53C14.0221 199.625 15.1575 198.552 16.5855 197.305C17.8393 196.212 18.7449 195.39 19.3022 194.839C19.8594 194.282 20.3261 193.669 20.7092 192.986C21.0924 192.304 21.2804 191.565 21.2804 190.764C21.2804 189.204 20.6953 187.894 19.532 186.822C18.3688 185.749 16.8641 185.213 15.0252 185.213C12.8728 185.213 11.2846 185.756 10.2676 186.836C9.25055 187.915 8.38679 189.511 7.68325 191.607C7.01454 193.808 5.75373 194.909 3.89387 194.909C2.80024 194.909 1.87379 194.526 1.12149 193.753C0.376152 193.007 0 192.171 0 191.273Z" fill="#EBEBEB"/>
<path d="M231.487 172.758C230.268 172.668 229.23 172.187 228.373 171.33C227.523 170.474 227.147 169.338 227.258 167.924C227.356 166.67 227.878 165.646 228.826 164.859C229.773 164.072 230.888 163.724 232.169 163.821C233.43 163.919 234.461 164.427 235.255 165.347C236.049 166.266 236.404 167.36 236.307 168.614C236.202 170.007 235.666 171.073 234.705 171.797C233.744 172.528 232.671 172.849 231.487 172.758Z" fill="#F0F0F0"/>
<path d="M220.07 136.801C220.209 134.955 220.947 133.137 222.285 131.333C223.622 129.529 225.475 128.094 227.851 127.028C230.226 125.962 232.943 125.544 235.987 125.774C238.815 125.99 241.274 126.701 243.363 127.906C245.453 129.111 247.013 130.65 248.058 132.524C249.103 134.398 249.542 136.383 249.382 138.48C249.256 140.131 248.811 141.552 248.044 142.743C247.278 143.934 246.393 144.944 245.397 145.78C244.401 146.609 242.625 148.002 240.062 149.959C239.351 150.51 238.78 150.997 238.348 151.422C237.916 151.847 237.582 152.244 237.359 152.606C237.136 152.968 236.955 153.338 236.815 153.707C236.676 154.076 236.467 154.731 236.182 155.664C235.659 157.656 234.419 158.576 232.469 158.43C231.452 158.353 230.623 157.956 229.982 157.245C229.341 156.535 229.07 155.525 229.167 154.222C229.292 152.592 229.655 151.199 230.254 150.043C230.853 148.887 231.605 147.89 232.511 147.055C233.416 146.219 234.635 145.229 236.154 144.094C237.484 143.105 238.452 142.353 239.052 141.837C239.651 141.329 240.166 140.744 240.598 140.096C241.03 139.448 241.274 138.723 241.336 137.929C241.455 136.376 240.974 135.025 239.894 133.868C238.815 132.712 237.359 132.064 235.527 131.925C233.381 131.758 231.758 132.183 230.665 133.179C229.571 134.182 228.589 135.7 227.725 137.741C226.896 139.887 225.552 140.883 223.699 140.744C222.605 140.66 221.714 140.207 221.024 139.385C220.314 138.549 220 137.693 220.07 136.801Z" fill="#F0F0F0"/>
<path d="M10.999 57.5445C9.9123 57.4887 8.98585 57.0917 8.21265 56.3464C7.43945 55.608 7.0842 54.6049 7.15385 53.3511C7.20958 52.2366 7.65539 51.3171 8.47735 50.5996C9.29931 49.8821 10.2815 49.5478 11.4169 49.6105C12.5384 49.6662 13.4648 50.0981 14.1893 50.8991C14.9137 51.7002 15.2481 52.6615 15.1924 53.776C15.1297 55.0159 14.6769 55.9702 13.841 56.632C12.9981 57.2937 12.0508 57.6002 10.999 57.5445Z" fill="#E6E6E6"/>
<path d="M0.111454 25.9056C0.195043 24.2686 0.814997 22.6386 1.95738 21.0086C3.09977 19.3856 4.71583 18.0691 6.80556 17.073C8.88833 16.0768 11.2846 15.645 13.9873 15.7843C16.5019 15.9166 18.6961 16.4948 20.5699 17.5118C22.4437 18.5358 23.8647 19.8662 24.833 21.5102C25.8012 23.1541 26.2331 24.9025 26.1356 26.7623C26.059 28.2252 25.6967 29.4999 25.035 30.5657C24.3802 31.6384 23.6209 32.5509 22.7572 33.3102C21.8934 34.0694 20.347 35.3442 18.111 37.1274C17.4911 37.629 16.9965 38.0748 16.6203 38.4649C16.2442 38.8549 15.9586 39.2102 15.7705 39.5376C15.5824 39.865 15.4292 40.1924 15.3177 40.5267C15.2063 40.8611 15.0321 41.4392 14.7953 42.2751C14.3704 44.0514 13.2977 44.8943 11.5632 44.8037C10.6646 44.7549 9.91927 44.4276 9.33414 43.8076C8.74902 43.1876 8.48432 42.303 8.54701 41.1467C8.62363 39.6978 8.91619 38.4579 9.41773 37.42C9.92623 36.3821 10.5671 35.4835 11.3542 34.7173C12.1413 33.951 13.1932 33.0524 14.5167 32.0145C15.673 31.109 16.5159 30.4194 17.0383 29.9527C17.5607 29.486 17.9996 28.9635 18.3688 28.3784C18.7379 27.7933 18.9399 27.1455 18.9748 26.4419C19.0444 25.0627 18.5917 23.8716 17.6095 22.8685C16.6273 21.8654 15.3247 21.3221 13.6947 21.2385C11.7861 21.141 10.3581 21.545 9.41076 22.4575C8.45645 23.37 7.62056 24.7353 6.90309 26.5673C6.21347 28.4829 5.04322 29.4024 3.3993 29.3118C2.43106 29.2631 1.62999 28.8799 0.996108 28.1625C0.369188 27.4589 0.0696594 26.6997 0.111454 25.9056Z" fill="#E6E6E6"/>
<path d="M40.8473 162.303C40.1577 162.254 39.5726 161.983 39.0919 161.502C38.6113 161.021 38.4023 160.38 38.458 159.579C38.5138 158.869 38.8063 158.291 39.3427 157.845C39.8791 157.399 40.506 157.204 41.2304 157.26C41.9409 157.316 42.5261 157.601 42.9719 158.124C43.4246 158.646 43.6197 159.259 43.564 159.969C43.5013 160.757 43.2017 161.356 42.6584 161.767C42.122 162.171 41.516 162.352 40.8473 162.303Z" fill="#EBEBEB"/>
<path d="M34.3831 142.005C34.4597 140.967 34.8776 139.936 35.6299 138.919C36.3822 137.902 37.4271 137.087 38.7715 136.488C40.1159 135.882 41.6414 135.645 43.362 135.777C44.9571 135.896 46.3503 136.3 47.5275 136.975C48.7047 137.651 49.5894 138.522 50.1814 139.581C50.7735 140.639 51.0243 141.761 50.9338 142.945C50.8641 143.878 50.6133 144.68 50.1814 145.355C49.7496 146.031 49.248 146.602 48.6908 147.069C48.1265 147.542 47.1235 148.323 45.6816 149.43C45.2845 149.744 44.9571 150.015 44.7133 150.259C44.4695 150.503 44.2814 150.726 44.1561 150.928C44.0307 151.13 43.9262 151.339 43.8496 151.548C43.7729 151.757 43.6545 152.126 43.4943 152.655C43.2017 153.777 42.4982 154.299 41.3976 154.216C40.8264 154.174 40.3597 153.951 39.9905 153.547C39.6283 153.143 39.475 152.579 39.5308 151.84C39.6004 150.921 39.8024 150.134 40.1438 149.479C40.4851 148.824 40.903 148.26 41.4185 147.786C41.934 147.313 42.6166 146.755 43.4734 146.114C44.2257 145.557 44.769 145.132 45.1104 144.84C45.4447 144.554 45.7373 144.22 45.9811 143.858C46.2249 143.488 46.3642 143.084 46.399 142.632C46.4617 141.754 46.1901 140.988 45.584 140.34C44.971 139.685 44.1491 139.323 43.1182 139.246C41.9061 139.156 40.9936 139.393 40.3736 139.957C39.7537 140.521 39.2034 141.385 38.7158 142.534C38.2491 143.746 37.4898 144.31 36.4449 144.234C35.825 144.185 35.3234 143.934 34.9334 143.468C34.5224 142.994 34.3482 142.506 34.3831 142.005Z" fill="#EBEBEB"/>
<path d="M180.915 172.472C180.226 172.424 179.64 172.152 179.16 171.671C178.679 171.191 178.47 170.55 178.526 169.749C178.582 169.038 178.874 168.46 179.411 168.014C179.947 167.569 180.574 167.373 181.298 167.429C182.009 167.485 182.594 167.771 183.04 168.293C183.492 168.815 183.687 169.428 183.632 170.139C183.569 170.926 183.27 171.525 182.726 171.936C182.19 172.34 181.584 172.521 180.915 172.472Z" fill="#EBEBEB"/>
<path d="M174.451 152.174C174.528 151.136 174.945 150.105 175.698 149.088C176.45 148.071 177.495 147.256 178.839 146.657C180.184 146.051 181.709 145.814 183.43 145.947C185.025 146.065 186.418 146.469 187.595 147.145C188.773 147.821 189.657 148.691 190.249 149.75C190.841 150.809 191.092 151.93 191.002 153.114C190.932 154.048 190.681 154.849 190.249 155.525C189.817 156.2 189.316 156.772 188.759 157.238C188.194 157.712 187.191 158.492 185.749 159.6C185.352 159.913 185.025 160.185 184.781 160.429C184.537 160.672 184.349 160.895 184.224 161.097C184.098 161.299 183.994 161.508 183.917 161.717C183.841 161.926 183.722 162.295 183.562 162.825C183.27 163.946 182.566 164.469 181.465 164.385C180.894 164.343 180.428 164.12 180.058 163.716C179.696 163.312 179.543 162.748 179.599 162.01C179.668 161.09 179.87 160.303 180.212 159.648C180.546 158.994 180.971 158.429 181.486 157.956C182.002 157.482 182.684 156.925 183.541 156.284C184.294 155.727 184.837 155.302 185.178 155.009C185.513 154.724 185.805 154.389 186.049 154.027C186.293 153.658 186.432 153.254 186.467 152.801C186.53 151.923 186.258 151.157 185.652 150.509C185.039 149.855 184.217 149.492 183.186 149.416C181.974 149.325 181.061 149.562 180.441 150.126C179.822 150.69 179.271 151.554 178.784 152.704C178.317 153.916 177.558 154.48 176.513 154.403C175.893 154.354 175.391 154.104 175.001 153.637C174.59 153.163 174.416 152.683 174.451 152.174Z" fill="#EBEBEB"/>
<path d="M231.41 62.1418C230.72 62.1418 230.114 61.9188 229.599 61.473C229.083 61.0272 228.826 60.4073 228.826 59.5992C228.826 58.8887 229.076 58.2897 229.578 57.8021C230.08 57.3145 230.693 57.0776 231.417 57.0776C232.134 57.0776 232.734 57.3214 233.221 57.8021C233.709 58.2897 233.953 58.8887 233.953 59.5992C233.953 60.3864 233.695 61.0133 233.186 61.4591C232.678 61.9049 232.079 62.1418 231.41 62.1418Z" fill="#EBEBEB"/>
<path d="M223.441 42.3867C223.441 41.3418 223.776 40.283 224.451 39.2103C225.127 38.1376 226.109 37.2529 227.405 36.5494C228.7 35.8458 230.205 35.4976 231.932 35.4976C233.535 35.4976 234.949 35.7901 236.175 36.3822C237.401 36.9673 238.348 37.7684 239.017 38.7784C239.685 39.7885 240.02 40.8891 240.02 42.0733C240.02 43.0067 239.832 43.8286 239.449 44.5322C239.065 45.2357 238.613 45.8417 238.09 46.3572C237.568 46.8657 236.62 47.7295 235.262 48.9345C234.886 49.2759 234.586 49.5754 234.357 49.8331C234.127 50.0909 233.959 50.3277 233.848 50.5436C233.737 50.7596 233.653 50.9755 233.59 51.1845C233.528 51.4004 233.437 51.7766 233.319 52.3129C233.11 53.4553 232.448 54.0265 231.347 54.0265C230.776 54.0265 230.289 53.8384 229.898 53.4693C229.508 53.0931 229.313 52.5428 229.313 51.8044C229.313 50.878 229.46 50.0839 229.745 49.4082C230.031 48.7325 230.414 48.1404 230.888 47.625C231.361 47.1165 232.002 46.5035 232.81 45.7999C233.521 45.187 234.029 44.7202 234.343 44.4068C234.656 44.0933 234.921 43.745 235.137 43.3619C235.353 42.9788 235.457 42.5609 235.457 42.1081C235.457 41.2304 235.13 40.4851 234.468 39.879C233.813 39.273 232.963 38.9735 231.925 38.9735C230.713 38.9735 229.815 39.28 229.244 39.886C228.672 40.499 228.185 41.3976 227.788 42.5818C227.412 43.8217 226.701 44.4416 225.649 44.4416C225.029 44.4416 224.507 44.2257 224.082 43.7868C223.65 43.3619 223.441 42.8952 223.441 42.3867Z" fill="#EBEBEB"/>
<path d="M39.3497 80.7331C39.3497 69.7759 42.7211 58.6795 49.464 47.4297C56.2068 36.187 66.0495 26.8737 78.9849 19.49C91.9204 12.1132 107.015 8.42139 124.262 8.42139C140.291 8.42139 154.445 11.5072 166.719 17.6789C178.993 23.8506 188.473 32.2374 195.16 42.8462C201.847 53.4621 205.191 64.9904 205.191 77.4453C205.191 87.2461 203.282 95.8419 199.472 103.219C195.655 110.602 191.127 116.969 185.875 122.333C180.623 127.696 171.198 136.717 157.601 149.409C153.839 152.982 150.83 156.131 148.559 158.833C146.295 161.543 144.609 164.023 143.502 166.273C142.394 168.523 141.538 170.773 140.932 173.023C140.326 175.273 139.413 179.222 138.194 184.871C136.09 196.867 129.515 202.864 118.46 202.864C112.713 202.864 107.872 200.907 103.95 196.985C100.029 193.063 98.0642 187.24 98.0642 179.515C98.0642 169.825 99.4991 161.439 102.376 154.347C105.253 147.256 109.063 141.029 113.821 135.665C118.571 130.302 124.987 123.928 133.06 116.551C140.137 110.094 145.25 105.218 148.399 101.93C151.547 98.6421 154.201 94.9851 156.361 90.9449C158.52 86.9117 159.593 82.5303 159.593 77.8005C159.593 68.5709 156.305 60.7901 149.722 54.4443C143.147 48.1054 134.655 44.929 124.262 44.929C112.1 44.929 103.142 48.1263 97.3955 54.5279C91.6487 60.9294 86.7796 70.3541 82.8022 82.8089C79.0407 95.8419 71.9147 102.355 61.4103 102.355C55.2177 102.355 49.9934 100.077 45.7373 95.5214C41.4812 90.9658 39.3497 86.041 39.3497 80.7331Z" fill="#F62A43"/>
<g opacity="0.2">
<path d="M155.483 130.991C152.55 114.601 149.513 108.004 145.585 104.758C142.492 107.809 138.312 111.738 133.046 116.544C126.255 122.751 120.647 128.247 116.203 133.025C117.889 154.529 120.285 185.067 120.313 185.324L121.762 202.669C127.92 201.91 132.419 198.929 135.261 193.732C134.739 187.282 133.555 184.767 133.555 184.767C133.555 184.767 135.052 162.797 136.473 145.682C138.487 152.495 140.416 160.122 143.007 167.325C143.168 166.977 143.321 166.628 143.495 166.28C144.603 164.03 146.288 161.55 148.552 158.841C150.816 156.131 153.832 152.989 157.594 149.416C157.963 149.075 158.311 148.747 158.673 148.406C157.308 141.468 156.117 134.92 155.483 130.991Z" fill="black"/>
</g>
<g opacity="0.2">
<path d="M163.494 107.747L157.009 89.6147C156.8 90.0606 156.584 90.4994 156.354 90.9382C155.072 93.3345 153.616 95.5984 151.986 97.7299L158.367 109.725C157.984 110.331 157.51 111.32 157.587 112.358C157.719 114.058 157.371 115.451 157.559 116.712C157.747 117.972 158.666 116.524 159.001 115.653C159.335 114.782 159.718 113.8 160.331 114.155C160.944 114.51 163.995 119.79 164.901 120.188C165.806 120.585 165.583 119.575 165.583 119.575C165.583 119.575 166.357 120.835 166.942 120.668C167.095 120.626 167.374 120.278 167.109 119.644C166.517 118.223 165.124 115.311 165.124 115.311C165.2 115.479 167.179 118.955 167.548 119.435C168.021 120.062 168.572 120.118 168.927 119.832C169.436 119.421 167.123 115.033 167.158 114.782C167.158 114.782 168.405 117.352 169.24 117.394C170.083 117.436 169.387 115.778 168.495 114.427C167.68 113.194 166.398 110.554 165.444 109.377C164.803 108.59 164.19 108.039 163.494 107.747Z" fill="black"/>
</g>
<g opacity="0.2">
<path d="M89.3988 62.859C89.4406 62.8381 89.4754 62.8172 89.5172 62.7963C90.4576 62.2878 89.6565 58.4148 89.6565 58.4148C89.6565 58.4148 90.6247 57.37 90.2556 56.3948C90.0605 55.8793 89.8237 55.7957 89.8237 55.7957C90.5481 54.9877 90.4367 53.7269 89.5659 53.0721C89.4893 53.0164 89.4406 52.9815 89.4406 52.9815C89.761 52.5566 89.4127 51.2122 88.5768 51.5954C88.3957 51.6789 88.0056 51.9297 87.525 52.2641V50.655C87.6155 50.655 87.6991 50.648 87.7618 50.648C90.6526 50.4739 92.7981 47.1373 92.5543 43.1946C92.3105 39.259 89.7749 36.208 86.8841 36.3821C86.71 36.396 86.5428 36.4169 86.3686 36.4518C86.3895 36.4518 86.4104 36.4587 86.4244 36.4587C86.3826 36.4587 86.3408 36.4657 86.306 36.4657C86.3269 36.4587 86.3478 36.4518 86.3686 36.4518C86.1945 36.4378 86.0273 36.4378 85.8532 36.4448C82.9624 36.6189 80.8169 39.9555 81.0607 43.8982C81.2836 47.5273 83.457 50.3972 86.0552 50.6828V53.3438C84.4809 54.5558 82.7882 56.0186 82.837 56.4296C82.9276 57.1401 84.8849 63.5974 84.8849 63.5974H84.9337C85.1009 65.2343 85.5397 69.1909 86.2015 73.4191C87.4553 70.3612 88.7858 67.547 90.1859 64.9766L89.3988 62.859ZM87.1558 50.6341C87.1349 50.6341 87.121 50.6271 87.1001 50.6271C87.1419 50.6201 87.1767 50.6201 87.2185 50.6201C87.1976 50.6201 87.1767 50.6271 87.1558 50.6341Z" fill="black"/>
</g>
<g opacity="0.2">
<path d="M117.262 28.6571C117.248 28.6502 117.234 28.6502 117.213 28.6502C116.795 28.5944 116.363 28.5736 115.917 28.5944C114.315 28.483 112.936 28.3437 109.112 29.7508C104.584 31.6246 102.627 35.2119 102.083 37.9843C101.77 41.8085 102.48 44.7063 102.703 48.5235L103.003 48.1126C103.003 48.4957 103.01 48.8718 103.031 49.241C103.045 49.45 103.073 49.645 103.093 49.847C108.513 46.5731 115.562 44.9292 124.262 44.9292C124.736 44.9292 125.196 44.9431 125.663 44.9571C125.565 44.8247 125.454 44.7063 125.321 44.5948C125.607 43.5848 125.837 42.5399 126.046 41.5578C126.234 40.5895 126.276 39.6143 126.213 38.6461C127.592 39.1406 128.909 40.1158 129.417 41.2931C130.1 42.8813 130.727 44.1072 131.507 45.4934C137.079 46.4059 141.99 48.419 146.246 51.5258C148.092 51.1775 149.876 50.5436 151.415 49.3943C153.679 47.7016 155.211 44.4207 154.257 41.5787C153.359 42.4354 152.126 42.8395 150.955 42.6653C151.965 41.5996 152.383 39.8929 152.007 38.4092C148.092 39.9626 143.418 41.8991 139.671 39.9069C137.95 38.9944 136.843 37.023 135.47 35.5533C134.098 34.0835 132.601 32.6416 130.762 32.0564C129.264 31.5828 126.338 32.5022 124.771 33.8397C124.513 33.3939 124.242 32.955 123.921 32.544C122.472 31.0812 120.174 29.0472 117.262 28.6571Z" fill="black"/>
</g>
<path d="M119.108 288C112.184 288 106.138 285.66 100.976 280.986C95.8073 276.305 93.2299 269.771 93.2299 261.356C93.2299 253.896 95.7307 247.62 100.725 242.528C105.72 237.436 111.849 234.893 119.115 234.893C126.269 234.893 132.28 237.443 137.163 242.528C142.046 247.62 144.484 253.896 144.484 261.356C144.484 269.645 141.928 276.158 136.822 280.895C131.709 285.625 125.802 288 119.108 288Z" fill="#F62A43"/>
<g opacity="0.2">
<path d="M120.501 241.608C119.818 240.932 118.78 240.786 117.826 240.737C115.144 240.598 112.685 240.96 110.101 241.705C106.27 243.175 103.003 246.08 101.108 249.723C99.2135 253.366 98.6981 257.705 99.6942 261.69C100.147 263.501 101.345 265.535 103.205 265.451C104.438 265.396 105.392 264.407 106.214 263.487C108.172 261.293 110.129 259.106 112.086 256.911C115.019 253.631 117.965 250.315 120.181 246.512C121.065 244.979 121.762 242.854 120.501 241.608Z" fill="white"/>
</g>
<path d="M158.597 3.08603C151.582 -2.08954 141.698 -0.598864 136.515 6.41567C132.517 11.835 132.51 18.9541 135.937 24.3038L134.662 28.8733L139.643 28.337C139.713 28.3927 139.775 28.4484 139.845 28.5041C146.859 33.6797 156.744 32.189 161.926 25.1745C167.109 18.146 165.618 8.2616 158.597 3.08603Z" fill="#F62A43"/>
<path opacity="0.7" d="M158.597 3.08603C151.582 -2.08954 141.698 -0.598864 136.515 6.41567C132.517 11.835 132.51 18.9541 135.937 24.3038L134.662 28.8733L139.643 28.337C139.713 28.3927 139.775 28.4484 139.845 28.5041C146.859 33.6797 156.744 32.189 161.926 25.1745C167.109 18.146 165.618 8.2616 158.597 3.08603Z" fill="white"/>
<path d="M160.296 2.06201C164.539 4.95281 167.158 10.0796 167.004 15.2134" stroke="#F62A43" stroke-width="0.348289" stroke-miterlimit="10" stroke-linecap="round" stroke-linejoin="round"/>
<path d="M166.851 17.5674C166.886 18.3475 166.761 19.1416 166.475 19.8661" stroke="#F62A43" stroke-width="0.348289" stroke-miterlimit="10" stroke-linecap="round" stroke-linejoin="round"/>
<path d="M148.197 16.5647C148.462 16.1119 148.852 15.6173 149.36 15.067C149.736 14.67 150.008 14.3356 150.182 14.057C150.356 13.7853 150.447 13.4788 150.447 13.1305C150.447 12.636 150.28 12.2529 149.945 11.9673C149.611 11.6817 149.165 11.5354 148.615 11.5354C148.085 11.5354 147.612 11.6677 147.201 11.9255C146.79 12.1832 146.442 12.5454 146.156 13.0121L144.101 11.5981C144.575 10.7482 145.216 10.0865 146.024 9.62675C146.832 9.16005 147.793 8.93018 148.9 8.93018C150.203 8.93018 151.248 9.25757 152.028 9.90538C152.815 10.5532 153.205 11.4588 153.205 12.6151C153.205 13.1584 153.129 13.639 152.975 14.05C152.822 14.461 152.634 14.8093 152.418 15.0949C152.195 15.3805 151.91 15.7079 151.561 16.084C151.143 16.5229 150.837 16.8921 150.642 17.1916C150.447 17.4911 150.356 17.8533 150.356 18.2782H147.793C147.8 17.5886 147.932 17.0174 148.197 16.5647ZM147.932 22.604C147.619 22.2905 147.465 21.9074 147.465 21.4546C147.465 21.0019 147.619 20.6257 147.925 20.3192C148.232 20.0197 148.622 19.8664 149.095 19.8664C149.569 19.8664 149.959 20.0197 150.266 20.3192C150.572 20.6257 150.725 21.0019 150.725 21.4546C150.725 21.9074 150.572 22.2905 150.259 22.604C149.945 22.9175 149.562 23.0777 149.095 23.0777C148.629 23.0777 148.239 22.9244 147.932 22.604Z" fill="#F62A43"/>
<path d="M77.7659 41.321C77.543 37.6222 79.4238 34.4528 82.0499 33.9373C81.8757 33.9234 81.7085 33.9234 81.5344 33.9304C78.6436 34.1045 76.4981 37.4411 76.7419 41.3837C76.9857 45.3194 79.5213 48.3704 82.4121 48.1963C82.5862 48.1823 82.7534 48.1614 82.9276 48.1266C80.2527 47.9385 77.9958 45.0199 77.7659 41.321Z" fill="#263238"/>
<path opacity="0.5" d="M82.3773 48.1408C85.1818 48.1408 87.4553 44.9598 87.4553 41.0358C87.4553 37.1117 85.1818 33.9307 82.3773 33.9307C79.5727 33.9307 77.2992 37.1117 77.2992 41.0358C77.2992 44.9598 79.5727 48.1408 82.3773 48.1408Z" fill="white"/>
<path opacity="0.5" d="M85.5258 35.9995L77.5082 43.0628C77.6127 43.6201 77.8425 44.254 78.1212 44.9227L86.4035 37.4763C86.2084 36.9678 85.9019 36.4802 85.5258 35.9995Z" fill="white"/>
<path opacity="0.5" d="M84.4322 34.8081L77.3062 41.544L77.3689 42.1431L84.9407 35.3375C84.7456 34.829 84.7735 35.0031 84.4322 34.8081Z" fill="white"/>
<path d="M88.2355 40.6805C87.9917 36.7448 85.4561 33.6938 82.5653 33.8679C82.3912 33.8819 82.224 33.9028 82.0499 33.9376C84.7178 34.1257 86.9747 37.0443 87.1976 40.7432C87.4274 44.442 85.3795 47.6253 82.7534 48.1408C82.9276 48.1547 83.2619 48.1478 83.4361 48.1338C86.3269 47.9527 88.4723 44.6161 88.2355 40.6805Z" fill="#263238"/>
<path d="M82.4817 59.2157H82.4539C82.0568 59.2157 81.7364 58.8953 81.7364 58.4982V48.1401H83.1992V58.4913C83.1992 58.8883 82.8788 59.2157 82.4817 59.2157Z" fill="#263238"/>
<path d="M96.8173 67.1782L91.0009 76.3103L84.6969 59.3208L80.5313 60.2821C80.5313 60.2821 82.5026 81.3048 85.7766 84.5578C88.1867 86.9471 91.6975 87.1282 94.2121 85.1499C96.685 83.1995 104.905 72.9041 104.905 72.9041L96.8173 67.1782Z" fill="#B97964"/>
<path d="M80.5662 61.083C80.5662 61.083 78.6088 54.6258 78.5182 53.9152C78.4277 53.2047 83.4152 49.4571 84.251 49.074C85.0869 48.6909 85.4422 50.0283 85.1148 50.4602C85.1148 50.4602 85.1636 50.495 85.2402 50.5508C86.1109 51.1986 86.2224 52.4664 85.4979 53.2744C85.4979 53.2744 85.7348 53.358 85.9298 53.8734C86.299 54.8487 85.3307 55.8935 85.3307 55.8935C85.3307 55.8935 86.1388 59.7665 85.1914 60.275C84.1953 60.8114 83.3873 61.2084 83.3734 61.1039L80.5662 61.083Z" fill="#B97964"/>
<path d="M82.0499 57.7461L83.3873 56.75V59.0417C83.3873 59.4876 83.0878 59.8498 82.7186 59.8498C82.3494 59.8498 82.0499 59.4876 82.0499 59.0417V57.7461Z" fill="#263238"/>
<path d="M119.519 219.658L120.424 229.16L127.564 229.94L128.289 219.728L119.519 219.658Z" fill="#B97964"/>
<path d="M118.878 227.641C118.864 227.265 119.191 226.966 119.561 226.979L121.734 227.063C122.284 227.07 122.841 228.094 123.162 228.547C124.534 230.511 125.593 229.794 127.139 227.983C128.108 227.878 128.351 229.013 128.428 229.32L130.149 236.07C130.302 236.634 129.974 237.212 129.417 237.365C129.32 237.393 129.215 237.407 129.118 237.4C126.171 237.358 124.778 237.338 121.114 237.289L109.906 237.136C106.848 237.094 106.263 233.945 107.524 233.674C113.201 232.475 117.227 230.832 119.003 229.181C119.24 228.965 118.906 228.331 118.878 227.641Z" fill="#263238"/>
<path d="M117.826 229.724C118.662 229.85 119.428 230.372 119.867 231.103" stroke="white" stroke-width="0.348289" stroke-miterlimit="10" stroke-linecap="round" stroke-linejoin="round"/>
<path d="M116.217 230.658C117.053 230.783 117.819 231.306 118.258 232.037" stroke="white" stroke-width="0.348289" stroke-miterlimit="10" stroke-linecap="round" stroke-linejoin="round"/>
<path d="M114.239 231.604C115.075 231.73 115.841 232.252 116.28 232.984" stroke="white" stroke-width="0.348289" stroke-miterlimit="10" stroke-linecap="round" stroke-linejoin="round"/>
<path d="M177.537 204.856L185.227 210.366L190.556 205.483L183.395 198.253L177.537 204.856Z" fill="#B97964"/>
<path d="M182.991 210.61C182.698 210.373 182.691 209.927 182.942 209.656L184.412 208.039C184.774 207.621 185.903 207.858 186.446 207.907C188.807 208.137 188.954 206.848 188.605 204.473C189.156 203.658 190.166 204.215 190.444 204.355L196.609 207.44C197.124 207.691 197.347 208.325 197.104 208.847C197.062 208.938 197.006 209.029 196.936 209.105C194.993 211.348 194.08 212.407 191.663 215.2L184.273 223.733C182.26 226.06 179.522 224.458 180.135 223.308C182.921 218.154 184.307 213.974 184.224 211.529C184.217 211.195 183.52 211.035 182.991 210.61Z" fill="#263238"/>
<path d="M183.966 212.735C184.6 212.178 185.492 211.927 186.321 212.066" stroke="white" stroke-width="0.348289" stroke-miterlimit="10" stroke-linecap="round" stroke-linejoin="round"/>
<path d="M183.618 214.588C184.252 214.031 185.143 213.78 185.972 213.919" stroke="white" stroke-width="0.348289" stroke-miterlimit="10" stroke-linecap="round" stroke-linejoin="round"/>
<path d="M183.04 216.726C183.674 216.169 184.565 215.918 185.394 216.057" stroke="white" stroke-width="0.348289" stroke-miterlimit="10" stroke-linecap="round" stroke-linejoin="round"/>
<path d="M110.261 109.746C110.261 109.746 115.952 182.399 116.001 182.81L119.561 225.336H128.804C128.804 225.336 128.867 222.884 129.347 219.659C133.562 191.385 129.243 182.246 129.243 182.246C129.243 182.246 132.956 127.655 134.258 123.545C134.384 123.12 129.96 91.8369 110.261 109.746Z" fill="#263238"/>
<path d="M110.122 109.656L110.38 110.08C114.19 115.235 121.407 120.724 125.182 125.433L126.492 128.4C126.492 128.4 153.958 107.106 136.104 98.3292C135.359 97.967 129.898 95.0414 129.898 95.0414C125.168 93.892 110.122 109.656 110.122 109.656Z" fill="#263238"/>
<path d="M151.164 128.477C152.662 137.776 157.301 161.801 159.934 170.843C159.934 170.843 168.028 175.475 172.605 180.657L187.212 201.22L180.692 207.072L154.055 187.588C148.03 183.054 145.592 179.696 143.23 175.273C137.449 164.469 134.6 150.719 131.145 139.845C129.549 134.802 123.406 118.565 123.935 113.347C124.632 106.284 124.882 94.853 133.471 98.7399C141.684 101.143 146.553 102.683 151.164 128.477Z" fill="#263238"/>
<path opacity="0.2" d="M130.741 142.276L123.984 117.325L116.28 114.754L122.291 120.355L130.741 142.276Z" fill="black"/>
<path d="M99.9728 63.3051C97.4721 65.3739 93.0558 72.4442 93.0558 72.4442L103.003 78.0795C103.003 78.0795 108.088 70.6749 107.566 67.387C107.022 63.9598 103.734 61.6542 99.9728 63.3051Z" fill="#263238"/>
<path opacity="0.5" d="M99.9728 63.3051C97.4721 65.3739 93.0558 72.4442 93.0558 72.4442L103.003 78.0795C103.003 78.0795 108.088 70.6749 107.566 67.387C107.022 63.9598 103.734 61.6542 99.9728 63.3051Z" fill="white"/>
<path opacity="0.3" d="M99.4364 75.8502V68.7729C99.4364 68.7729 96.5387 77.2224 97.2074 78.741C97.8691 80.2595 98.1408 81.0466 98.1408 81.0466L99.2553 79.758L99.4364 75.8502Z" fill="black"/>
<path d="M135.86 93.9754C133.722 91.5235 132.322 88.5142 131.827 85.296C131.075 80.3921 130.044 73.5309 130.156 72.9945L130.49 59.7665C127.564 56.8409 116.712 56.813 116.712 56.813L109.432 58.6729C109.432 58.6729 106.73 59.864 104.459 61.1318C101.436 62.8245 99.8405 62.915 99.4295 64.8585C99.4295 64.8585 98.8374 71.2391 98.6702 77.6964C98.6145 80.0021 109.321 101.206 109.453 105.197V111.696C124.973 119.512 141.273 100.189 141.273 100.189L135.86 93.9754Z" fill="#263238"/>
<path opacity="0.5" d="M135.86 93.9754C133.722 91.5235 132.322 88.5142 131.827 85.296C131.075 80.3921 130.044 73.5309 130.156 72.9945L130.49 59.7665C127.564 56.8409 116.712 56.813 116.712 56.813L109.432 58.6729C109.432 58.6729 106.73 59.864 104.459 61.1318C101.436 62.8245 99.8405 62.915 99.4295 64.8585C99.4295 64.8585 98.8374 71.2391 98.6702 77.6964C98.6145 80.0021 109.321 101.206 109.453 105.197V111.696C124.973 119.512 141.273 100.189 141.273 100.189L135.86 93.9754Z" fill="white"/>
<path opacity="0.3" d="M130.755 78.1491C130.755 78.1491 123.949 72.0053 124.297 69.1284L130.086 72.2352L130.476 76.129L130.755 78.1491Z" fill="black"/>
<path d="M135.742 65.5415C135.902 65.7714 145.752 76.8679 149.708 81.0613C150.558 81.9598 151.213 83.0256 151.645 84.1819L159.767 106.883L154.682 108.402L143.007 86.4458L128.33 74.0258L135.742 65.5415Z" fill="#B97964"/>
<path d="M154.487 106.591C154.487 106.591 153.129 108.144 153.261 109.844C153.393 111.543 153.045 112.937 153.233 114.197C153.421 115.458 154.341 114.009 154.675 113.139C155.009 112.268 155.393 111.286 156.006 111.641C156.619 111.996 159.67 117.276 160.575 117.673C161.481 118.07 161.258 117.06 161.258 117.06C161.258 117.06 162.031 118.321 162.616 118.154C162.769 118.112 163.048 117.764 162.783 117.13C162.191 115.709 160.798 112.797 160.798 112.797C160.875 112.964 162.853 116.44 163.222 116.921C163.696 117.548 164.246 117.604 164.601 117.318C165.11 116.907 162.797 112.519 162.832 112.268C162.832 112.268 164.079 114.838 164.915 114.88C165.758 114.922 165.061 113.264 164.169 111.913C163.354 110.68 162.073 108.04 161.118 106.862C159.948 105.414 158.834 104.703 157.141 105.142C155.441 105.574 154.487 106.591 154.487 106.591Z" fill="#B97964"/>
<path d="M128.623 58.7705C131.925 58.9795 137.915 67.2339 137.915 67.2339L130.162 75.9969C130.162 75.9969 122.89 69.6441 122.765 65.395C122.66 61.8076 124.43 58.4989 128.623 58.7705Z" fill="#263238"/>
<path opacity="0.5" d="M128.623 58.7705C131.925 58.9795 137.915 67.2339 137.915 67.2339L130.162 75.9969C130.162 75.9969 122.89 69.6441 122.765 65.395C122.66 61.8076 124.43 58.4989 128.623 58.7705Z" fill="white"/>
<path d="M104.8 27.236C100.272 29.1098 98.315 32.6972 97.7716 35.4696C97.4582 39.2938 98.1687 42.1915 98.3916 46.0088L112.957 26.1354C110.547 26.1354 109.613 25.4597 104.8 27.236Z" fill="#263238"/>
<path d="M110.15 26.282C114.392 25.2441 117.715 28.1209 119.602 30.0295C121.574 32.5651 122.347 35.839 121.727 39.0363C121.086 42.0107 120.306 45.612 118.174 46.8031C116.976 47.4997 115.548 47.6669 114.239 47.2629L102.543 30.8027C104.668 28.6851 107.287 27.1318 110.15 26.282Z" fill="#263238"/>
<path d="M115.813 50.7944C115.813 50.683 115.806 50.5645 115.785 50.4531C115.715 49.9376 115.493 49.4639 115.144 49.0948C114.218 48.0499 112.623 47.9663 111.571 48.9206L107.524 50.7178C107.517 50.7805 107.517 50.8362 107.51 50.9059L108.241 56.8616C108.353 58.6379 106.346 60.0937 105.225 60.8739C104.549 61.3963 103.205 66.2445 107.712 69.8319C109.042 70.8976 111.097 69.1562 112.435 67.9999C117.931 62.7129 117.812 57.8298 117.812 57.8298C115.778 55.9769 115.632 54.7301 115.813 50.7944Z" fill="#B97964"/>
<path opacity="0.2" d="M106.04 50.3763C106.075 50.3206 106.103 50.2579 106.117 50.1952L110.505 49.7912C111.815 49.2548 113.291 49.8678 113.807 51.1704C114.009 51.5326 114.517 48.9832 113.988 52.3128L113.981 52.3616L108.185 56.4365C108.185 56.4365 107.482 51.6023 107.447 51.5814C107.405 51.5675 106.04 50.3763 106.04 50.3763Z" fill="black"/>
<path d="M119.352 39.4748C117.715 46.3152 117.171 49.2338 113.117 52.3266C107.015 56.9589 99.1439 53.8452 98.712 46.7261C98.3777 40.3316 101.08 30.2312 108.206 28.3504C115.332 26.4766 120.989 32.6204 119.352 39.4748Z" fill="#B97964"/>
<path d="M121.107 45.9603C120.097 47.3047 118.634 48.064 117.366 48.2312C115.458 48.4889 114.887 45.4031 115.764 43.6129C116.551 42.0038 118.516 41.0982 120.264 41.6625C121.985 42.2197 122.263 44.4209 121.107 45.9603Z" fill="#B97964"/>
<path opacity="0.2" d="M117.241 45.1519C117.373 44.4901 117.77 43.8841 118.328 43.501C118.885 43.1178 119.588 42.9646 120.243 43.0761" stroke="black" stroke-width="0.348289" stroke-miterlimit="10" stroke-linecap="round" stroke-linejoin="round"/>
<path d="M109.802 40.6662C109.669 41.4046 109.189 41.9688 108.729 41.927C108.269 41.8852 107.997 41.2514 108.13 40.513C108.262 39.7746 108.743 39.2104 109.202 39.2522C109.662 39.3009 109.934 39.9348 109.802 40.6662Z" fill="#263238"/>
<path d="M102.905 39.8862C102.78 40.6037 102.299 41.147 101.84 41.1052C101.38 41.0634 101.108 40.4505 101.241 39.733C101.366 39.0155 101.847 38.4722 102.306 38.514C102.766 38.5558 103.038 39.1688 102.905 39.8862Z" fill="#263238"/>
<path d="M111.592 38.2487C111.501 38.2487 111.418 38.2139 111.355 38.1442C110.408 37.0227 109.147 37.2387 109.133 37.2456C108.945 37.2805 108.778 37.1551 108.764 36.967C108.75 36.7789 108.889 36.5978 109.077 36.563C109.14 36.549 110.721 36.2774 111.898 37.6705C112.017 37.8099 111.989 38.0258 111.842 38.1581C111.766 38.2139 111.682 38.2487 111.592 38.2487Z" fill="#263238"/>
<path d="M101.046 36.1106C100.976 36.0758 100.927 36.0201 100.906 35.9365C100.864 35.7693 100.969 35.5743 101.136 35.5046C102.85 34.7802 103.943 35.5952 103.992 35.63C104.124 35.7275 104.131 35.9295 104.013 36.0828C103.895 36.236 103.693 36.2778 103.56 36.1803C103.518 36.1455 102.655 35.5325 101.296 36.1037C101.206 36.1455 101.115 36.1385 101.046 36.1106Z" fill="#263238"/>
<path d="M104.828 39.7471C104.828 39.7471 103.393 42.2478 101.944 43.7524C101.693 44.0171 101.77 44.449 102.09 44.6092C102.912 45.0202 103.957 44.846 103.957 44.846L104.828 39.7471Z" fill="#A24E3F"/>
<path d="M109.46 39.3146L107.907 38.7573C107.907 38.7573 108.631 40.0599 109.46 39.3146Z" fill="#263238"/>
<path d="M102.474 38.5485L100.92 37.9912C100.913 37.9912 101.638 39.2868 102.474 38.5485Z" fill="#263238"/>
<path d="M103.999 46.824C104.431 47.5763 104.912 49.0183 104.912 49.0183C105.051 48.9974 105.19 48.9695 105.329 48.9416C107.21 48.5864 107.976 47.7992 108.262 47.04C108.415 46.622 108.415 46.2041 108.374 45.8767C108.325 45.4936 108.206 45.2358 108.206 45.2358C107.308 46.016 105.58 46.4827 104.647 46.6987C104.25 46.7822 103.999 46.824 103.999 46.824Z" fill="#263238"/>
<path d="M104.64 46.6917L104.925 47.3325C106.695 46.9912 107.907 46.5175 108.367 45.8767C108.318 45.4936 108.199 45.2358 108.199 45.2358C107.308 46.016 105.573 46.4827 104.64 46.6917Z" fill="white"/>
<path d="M105.329 48.9417C107.21 48.5864 107.976 47.7993 108.262 47.04C107.628 47.1863 106.869 47.4301 106.242 47.8481C105.754 48.1615 105.49 48.5586 105.329 48.9417Z" fill="#DE5753"/>
<path d="M116.621 40.6801C116.621 40.6801 113.681 35.421 114.392 31.5619C114.392 31.5619 101.087 25.6759 99.7499 38.054C99.7499 38.054 98.9976 26.9715 110.791 27.5218C122.584 28.0721 121.699 43.5222 115.388 47.7225C115.381 47.6668 118.432 43.968 116.621 40.6801Z" fill="#263238"/>
<path d="M105.274 27.9956C103.456 29.1449 102.042 30.8446 101.234 32.8298C100.913 34.3275 102.703 35.8042 102.703 35.8042L105.88 33.0318L105.26 35.8948C109.411 36.25 112.219 34.5504 114.281 31.7083L112.901 27.2085C112.901 27.2154 106.869 27.09 105.274 27.9956Z" fill="#263238"/>
<path d="M149.938 39.0639C149.04 39.9206 147.807 40.3247 146.637 40.1505C147.647 39.0847 148.065 37.3781 147.688 35.8944C143.774 37.4478 139.1 39.3843 135.352 37.3921C133.631 36.4795 132.524 34.5082 131.152 33.0385C129.779 31.5687 128.282 30.1268 126.443 29.5416C124.611 28.9635 120.633 30.4681 119.637 32.2722L119.4 35.8248C121.295 35.4625 124.276 36.8418 125.105 38.7713C125.941 40.7008 126.68 42.087 127.717 43.8911C129.034 46.1689 130.323 47.6039 132.559 48.6C133.576 49.0528 135.888 49.5543 139.322 49.3314C142.046 49.1573 144.846 48.5652 147.103 46.8725C149.36 45.1868 150.893 41.8989 149.938 39.0639Z" fill="#263238"/>
</g>
<defs>
<clipPath id="clip0_1674_786">
<rect width="249.417" height="288" fill="white"/>
</clipPath>
</defs>
</svg>
