<svg width="16" height="16" viewBox="0 0 16 16" fill="none" xmlns="http://www.w3.org/2000/svg">
<path d="M14.6667 3.23378V11.1604C14.6667 11.8071 14.14 12.4004 13.4933 12.4804L13.2867 12.5071C12.1933 12.6538 10.6533 13.1071 9.41333 13.6271C8.98 13.8071 8.5 13.4804 8.5 13.0071V3.73378C8.5 3.48711 8.64 3.26044 8.86 3.14044C10.08 2.48044 11.9267 1.89378 13.18 1.78711H13.22C14.02 1.78711 14.6667 2.43378 14.6667 3.23378Z" fill="#F62A43"/>
<path d="M7.13999 3.14044C5.91999 2.48044 4.07333 1.89378 2.81999 1.78711H2.77333C1.97333 1.78711 1.32666 2.43378 1.32666 3.23378V11.1604C1.32666 11.8071 1.85333 12.4004 2.49999 12.4804L2.70666 12.5071C3.79999 12.6538 5.33999 13.1071 6.57999 13.6271C7.01333 13.8071 7.49333 13.4804 7.49333 13.0071V3.73378C7.49333 3.48044 7.35999 3.26044 7.13999 3.14044ZM3.33333 5.16044H4.83333C5.10666 5.16044 5.33333 5.38711 5.33333 5.66044C5.33333 5.94044 5.10666 6.16044 4.83333 6.16044H3.33333C3.05999 6.16044 2.83333 5.94044 2.83333 5.66044C2.83333 5.38711 3.05999 5.16044 3.33333 5.16044ZM5.33333 8.16044H3.33333C3.05999 8.16044 2.83333 7.94044 2.83333 7.66044C2.83333 7.38711 3.05999 7.16044 3.33333 7.16044H5.33333C5.60666 7.16044 5.83333 7.38711 5.83333 7.66044C5.83333 7.94044 5.60666 8.16044 5.33333 8.16044Z" fill="#F62A43"/>
</svg>
