<svg width="25" height="24" viewBox="0 0 25 24" fill="none" xmlns="http://www.w3.org/2000/svg">
<path d="M21.57 5.23C19.96 5.07 18.35 4.95 16.73 4.86V4.85L16.51 3.55C16.36 2.63 16.14 1.25 13.8 1.25H11.18C8.85001 1.25 8.63 2.57 8.47 3.54L8.26 4.82C7.33001 4.88 6.4 4.94 5.47 5.03L3.43001 5.23C3.01001 5.27 2.71 5.64 2.75 6.05C2.79 6.46 3.15 6.76 3.57 6.72L5.61001 6.52C10.85 6 16.13 6.2 21.43 6.73C21.46 6.73 21.48 6.73 21.51 6.73C21.89 6.73 22.22 6.44 22.26 6.05C22.29 5.64 21.99 5.27 21.57 5.23Z" fill="white"/>
<path d="M19.73 8.14C19.49 7.89 19.16 7.75 18.82 7.75H6.17999C5.83999 7.75 5.49999 7.89 5.26999 8.14C5.03999 8.39 4.90999 8.73 4.92999 9.08L5.54999 19.34C5.65999 20.86 5.79999 22.76 9.28999 22.76H15.71C19.2 22.76 19.34 20.87 19.45 19.34L20.07 9.09C20.09 8.73 19.96 8.39 19.73 8.14ZM14.16 17.75H10.83C10.42 17.75 10.08 17.41 10.08 17C10.08 16.59 10.42 16.25 10.83 16.25H14.16C14.57 16.25 14.91 16.59 14.91 17C14.91 17.41 14.57 17.75 14.16 17.75ZM15 13.75H9.99999C9.58999 13.75 9.24999 13.41 9.24999 13C9.24999 12.59 9.58999 12.25 9.99999 12.25H15C15.41 12.25 15.75 12.59 15.75 13C15.75 13.41 15.41 13.75 15 13.75Z" fill="white"/>
</svg>
