<svg width="18" height="18" viewBox="0 0 18 18" fill="none" xmlns="http://www.w3.org/2000/svg">
<path d="M15.8175 5.23563C15.18 4.53063 14.115 4.17813 12.57 4.17813H12.39V4.14813C12.39 2.88813 12.39 1.32812 9.57 1.32812H8.43C5.61 1.32812 5.61 2.89563 5.61 4.14813V4.18563H5.43C3.8775 4.18563 2.82 4.53812 2.1825 5.24312C1.44 6.06812 1.4625 7.17812 1.5375 7.93562L1.545 7.98812L1.59745 8.53891C1.61172 8.68868 1.69244 8.82407 1.81851 8.90618C2.00028 9.02458 2.26534 9.19415 2.43 9.28563C2.535 9.35313 2.6475 9.41313 2.76 9.47313C4.0425 10.1781 5.4525 10.6506 6.885 10.8831C6.9525 11.5881 7.26 12.4131 8.9025 12.4131C10.545 12.4131 10.8675 11.5956 10.92 10.8681C12.45 10.6206 13.9275 10.0881 15.2625 9.30812C15.3075 9.28562 15.3375 9.26312 15.375 9.24062C15.657 9.08125 15.9489 8.88681 16.2182 8.69415C16.3315 8.61306 16.4037 8.48688 16.4191 8.34837L16.425 8.29563L16.4625 7.94312C16.47 7.89812 16.47 7.86062 16.4775 7.80812C16.5375 7.05062 16.5225 6.01562 15.8175 5.23563ZM9.8175 10.3731C9.8175 11.1681 9.8175 11.2881 8.895 11.2881C7.9725 11.2881 7.9725 11.1456 7.9725 10.3806V9.43563H9.8175V10.3731ZM6.6825 4.17813V4.14813C6.6825 2.87313 6.6825 2.40062 8.43 2.40062H9.57C11.3175 2.40062 11.3175 2.88063 11.3175 4.14813V4.18563H6.6825V4.17813Z" fill="#F62A43"/>
<path d="M15.4532 10.3967C15.8076 10.23 16.2143 10.511 16.1789 10.9009L15.93 13.643C15.7725 15.143 15.1575 16.673 11.8575 16.673H6.1425C2.8425 16.673 2.2275 15.143 2.07 13.6505L1.83429 11.0577C1.79925 10.6722 2.19699 10.3918 2.55029 10.5498C3.41229 10.9355 4.78562 11.5221 5.69055 11.7701C5.85436 11.815 5.98795 11.9334 6.064 12.0853C6.53163 13.0192 7.5071 13.5155 8.90251 13.5155C10.2842 13.5155 11.2713 13.0001 11.7409 12.063C11.817 11.911 11.9504 11.7927 12.1143 11.7475C13.0777 11.4817 14.5471 10.823 15.4532 10.3967Z" fill="#F62A43"/>
</svg>
