<svg width="97" height="97" viewBox="0 0 97 97" fill="none" xmlns="http://www.w3.org/2000/svg">
<path d="M48.5 0.375C38.9818 0.375 29.6773 3.19748 21.7632 8.48552C13.8491 13.7736 7.68079 21.2897 4.03832 30.0834C0.395852 38.8771 -0.557184 48.5534 1.29973 57.8887C3.15664 67.2241 7.74011 75.7991 14.4705 82.5295C21.2009 89.2599 29.776 93.8434 39.1113 95.7003C48.4466 97.5572 58.123 96.6042 66.9167 92.9617C75.7104 89.3192 83.2265 83.1509 88.5145 75.2368C93.8025 67.3227 96.625 58.0182 96.625 48.5C96.625 35.7365 91.5547 23.4957 82.5295 14.4705C73.5044 5.4453 61.2636 0.375 48.5 0.375ZM73.4682 38.4681L42.8431 69.0931C42.0227 69.9133 40.9101 70.3741 39.75 70.3741C38.5899 70.3741 37.4773 69.9133 36.6569 69.0931L23.5319 55.9681C22.735 55.143 22.294 54.0379 22.3039 52.8907C22.3139 51.7436 22.774 50.6463 23.5852 49.8352C24.3964 49.024 25.4937 48.5639 26.6408 48.5539C27.7879 48.544 28.893 48.9849 29.7181 49.7819L39.75 59.8138L67.2819 32.2819C68.107 31.4849 69.2122 31.044 70.3593 31.0539C71.5064 31.0639 72.6037 31.524 73.4149 32.3352C74.226 33.1463 74.6861 34.2436 74.6961 35.3907C74.7061 36.5379 74.2651 37.643 73.4682 38.4681Z" fill="#F62A43"/>
</svg>
