<svg width="36" height="36" viewBox="0 0 36 36" fill="none" xmlns="http://www.w3.org/2000/svg">
<path d="M25.5 13.5C25.5 19.305 20.46 24 14.25 24L12.855 25.68L12.03 26.67C11.325 27.51 9.97499 27.33 9.50999 26.325L7.5 21.9C4.77 19.98 3 16.935 3 13.5C3 7.695 8.04 3 14.25 3C18.78 3 22.695 5.50501 24.45 9.10501C25.125 10.44 25.5 11.925 25.5 13.5Z" stroke="white" stroke-width="2.25" stroke-linecap="round" stroke-linejoin="round"/>
<path d="M33 19.29C33 22.725 31.23 25.77 28.5 27.69L26.49 32.115C26.025 33.12 24.675 33.315 23.97 32.46L21.75 29.79C18.12 29.79 14.88 28.185 12.855 25.68L14.25 24C20.46 24 25.5 19.305 25.5 13.5C25.5 11.925 25.125 10.44 24.45 9.10501C29.355 10.23 33 14.37 33 19.29Z" stroke="white" stroke-width="2.25" stroke-linecap="round" stroke-linejoin="round"/>
<path d="M10.5 13.5H18" stroke="white" stroke-width="2.25" stroke-linecap="round" stroke-linejoin="round"/>
</svg>
