<svg width="26" height="26" viewBox="0 0 26 26" fill="none" xmlns="http://www.w3.org/2000/svg">
<path d="M19 9.24267C19 13.7997 14.968 17.4853 10 17.4853L8.88401 18.8042L8.22401 19.5814C7.66001 20.2408 6.58 20.0994 6.208 19.3105L4.6 15.8368C2.416 14.3295 1 11.9392 1 9.24267C1 4.68565 5.032 1 10 1C13.624 1 16.756 2.96647 18.16 5.79253C18.7 6.84053 19 8.00627 19 9.24267Z" stroke="#C2C2C2" stroke-width="2" stroke-linecap="round" stroke-linejoin="round"/>
<path d="M25 14.0987C25 16.83 23.5942 19.2513 21.4259 20.778L19.8295 24.2966C19.4602 25.0957 18.3879 25.2508 17.828 24.5709L16.0648 22.4478C13.1817 22.4478 10.6083 21.1716 9 19.1797L10.108 17.8439C15.0402 17.8439 19.0432 14.1106 19.0432 9.49471C19.0432 8.24234 18.7453 7.06154 18.2092 6C22.105 6.89455 25 10.1865 25 14.0987Z" stroke="#C2C2C2" stroke-width="2" stroke-linecap="round" stroke-linejoin="round"/>
<path d="M7 9H13" stroke="#C2C2C2" stroke-width="2" stroke-linecap="round" stroke-linejoin="round"/>
</svg>
