<svg width="14" height="14" viewBox="0 0 14 14" fill="none" xmlns="http://www.w3.org/2000/svg">
<path d="M10.2308 4.97693C10.2308 7.43071 8.0597 9.41529 5.38462 9.41529L4.7837 10.1254L4.42832 10.5439C4.12462 10.899 3.54308 10.8229 3.34277 10.3981L2.47693 8.52761C1.30093 7.71602 0.538467 6.42891 0.538467 4.97693C0.538467 2.52316 2.70954 0.538574 5.38462 0.538574C7.33601 0.538574 9.02247 1.59744 9.77847 3.11917C10.0692 3.68347 10.2308 4.31118 10.2308 4.97693Z" fill="white"/>
<path d="M14 7.59178C14 9.06252 13.243 10.3663 12.0755 11.1884L11.2159 13.083C11.017 13.5133 10.4397 13.5968 10.1381 13.2307L9.18872 12.0875C7.63629 12.0875 6.25064 11.4003 5.38461 10.3277L5.98121 9.60843C8.63703 9.60843 10.7925 7.59821 10.7925 5.11273C10.7925 4.43837 10.6321 3.80255 10.3434 3.23096C12.4411 3.71264 14 5.48522 14 7.59178Z" fill="white"/>
<path d="M3.76923 4.84619H7" stroke="#959595" stroke-width="2" stroke-linecap="round" stroke-linejoin="round"/>
</svg>
