<svg width="24" height="24" viewBox="0 0 24 24" fill="none" xmlns="http://www.w3.org/2000/svg">
<path d="M20.175 6.89062H17.0109L15.1172 4.97812C15.1172 4.97812 15.1078 4.96875 15.1031 4.96875L15.0938 4.95938C14.8125 4.67813 14.4328 4.5 14.0016 4.5H10.0641C9.60469 4.5 9.19688 4.69688 8.91094 5.01094V5.01562L7.05938 6.89062H3.825C2.95312 6.89062 2.25 7.575 2.25 8.44687V17.9203C2.25 18.7922 2.95312 19.5 3.825 19.5H20.175C21.0422 19.5 21.75 18.7922 21.75 17.9203V8.44687C21.75 7.575 21.0422 6.89062 20.175 6.89062ZM12 17.1328C9.61406 17.1328 7.66875 15.1828 7.66875 12.7922C7.66875 10.3969 9.61406 8.45156 12 8.45156C14.3906 8.45156 16.3312 10.3969 16.3312 12.7922C16.3312 15.1828 14.3906 17.1328 12 17.1328ZM19.8797 9.39844C19.5188 9.39844 19.2234 9.10312 19.2234 8.7375C19.2234 8.37187 19.5188 8.07656 19.8797 8.07656C20.2406 8.07656 20.5359 8.37187 20.5359 8.7375C20.5359 9.10312 20.2406 9.39844 19.8797 9.39844Z" fill="#F62A43"/>
<path d="M11.9999 9.51099C10.1905 9.51099 8.72803 10.9782 8.72803 12.7922C8.72803 14.6016 10.1905 16.0735 11.9999 16.0735C13.8046 16.0735 15.2718 14.6063 15.2718 12.7922C15.2718 10.9782 13.8046 9.51099 11.9999 9.51099Z" fill="#F62A43"/>
</svg>
