<svg width="13" height="14" viewBox="0 0 13 14" fill="none" xmlns="http://www.w3.org/2000/svg">
<path d="M9.80681 0.863665C9.97096 0.68459 10.1658 0.542539 10.3803 0.445624C10.5948 0.348709 10.8247 0.298828 11.0568 0.298828C11.289 0.298828 11.5188 0.348709 11.7333 0.445624C11.9478 0.542539 12.1427 0.68459 12.3068 0.863665C12.471 1.04274 12.6012 1.25533 12.69 1.48931C12.7788 1.72328 12.8246 1.97405 12.8246 2.2273C12.8246 2.48055 12.7788 2.73132 12.69 2.9653C12.6012 3.19927 12.471 3.41186 12.3068 3.59094L3.86931 12.7955L0.431808 13.8182L1.36931 10.0682L9.80681 0.863665Z" fill="#F62A43"/>
</svg>
