<svg width="25" height="24" viewBox="0 0 25 24" fill="none" xmlns="http://www.w3.org/2000/svg">
<g clip-path="url(#clip0_256_199)">
<path d="M24.2135 12.2763C24.2135 11.4605 24.1474 10.6404 24.0063 9.83789H12.6875V14.4589H19.1692C18.9003 15.9492 18.036 17.2676 16.7705 18.1054V21.1037H20.6375C22.9083 19.0137 24.2135 15.9272 24.2135 12.2763Z" fill="#4285F4"/>
<path d="M12.6876 24.0008C15.9241 24.0008 18.6535 22.9382 20.6421 21.1039L16.7751 18.1055C15.6992 18.8375 14.3103 19.252 12.692 19.252C9.56142 19.252 6.907 17.1399 5.95459 14.3003H1.96414V17.3912C4.00125 21.4434 8.15044 24.0008 12.6876 24.0008Z" fill="#34A853"/>
<path d="M5.95004 14.3005C5.44737 12.8101 5.44737 11.1963 5.95004 9.70593V6.61499H1.964C0.261999 10.0058 0.261999 14.0006 1.964 17.3914L5.95004 14.3005Z" fill="#FBBC04"/>
<path d="M12.6876 4.74966C14.3985 4.7232 16.052 5.36697 17.291 6.54867L20.717 3.12262C18.5476 1.0855 15.6683 -0.034466 12.6876 0.000808666C8.15043 0.000808666 4.00125 2.55822 1.96414 6.61481L5.95018 9.70575C6.89818 6.86173 9.55701 4.74966 12.6876 4.74966Z" fill="#EA4335"/>
</g>
<defs>
<clipPath id="clip0_256_199">
<rect width="24" height="24" fill="white" transform="translate(0.5)"/>
</clipPath>
</defs>
</svg>
