<svg width="24" height="24" viewBox="0 0 24 24" fill="none" xmlns="http://www.w3.org/2000/svg">
<path d="M18.7464 4H5.22259C4.00897 4 3 5.02321 3 6.28571V17.7143C3 18.9768 4.009 20 5.22227 20H18.746C19.991 20 21 18.9768 21 17.7143V6.28571C21.0003 5.02321 20.0213 4 18.7464 4ZM6.91306 6.28571C7.84669 6.28571 8.60353 7.05321 8.60353 8C8.60353 8.94679 7.87804 9.71429 6.91306 9.71429C5.94808 9.71429 5.22259 8.94679 5.22259 8C5.22259 7.05321 6.01077 6.28571 6.91306 6.28571ZM18.7111 17.4143C18.6125 17.6 18.4224 17.7143 18.2146 17.7143H5.88856C5.67651 17.7143 5.4825 17.5936 5.38635 17.4018C5.29021 17.2101 5.30834 16.98 5.43333 16.8061L7.8986 13.3775C8.00482 13.2286 8.17387 13.1429 8.35348 13.1429C8.53309 13.1429 8.7027 13.23 8.80885 13.3776L9.95203 14.9673L13.2379 9.99943C13.3439 9.81071 13.52 9.71429 13.7066 9.71429C13.8933 9.71429 14.0711 9.80971 14.1754 9.96875L18.6833 16.8259C18.7992 17 18.8098 17.225 18.7111 17.4143Z" fill="#F62A43"/>
</svg>
