<svg width="19" height="19" viewBox="0 0 19 19" fill="none" xmlns="http://www.w3.org/2000/svg">
<path d="M9.48848 9L16.5 2.5H3L9.48848 9Z" fill="#FF3A36"/>
<path d="M9.48898 10C9.37875 10 9.26851 9.95556 9.20237 9.88889L0.119261 0.711111C0.00902881 0.6 -0.0350639 0.422222 0.0310753 0.266667C0.0972145 0.111111 0.251539 0 0.405864 0H18.5941C18.7705 0 18.9028 0.111111 18.9689 0.266667C19.0351 0.422222 18.991 0.6 18.8807 0.711111L9.77558 9.86667C9.70944 9.95555 9.59921 10 9.48898 10ZM1.39795 0.822222L9.48898 8.97778L17.58 0.822222H1.39795Z" fill="#CACACA"/>
<path d="M9.5 18C9.23684 18 9 17.8191 9 17.5704V9.42965C9 9.20352 9.21053 9 9.5 9C9.76316 9 10 9.1809 10 9.42965V17.593C10 17.8191 9.78947 18 9.5 18Z" fill="#CACACA"/>
<path d="M12.6167 18.563H6.38329C6.18156 18.563 6 18.3525 6 18.063C6 17.7998 6.16138 17.563 6.38329 17.563H12.6167C12.8184 17.563 13 17.7735 13 18.063C12.9798 18.3525 12.8184 18.563 12.6167 18.563Z" fill="#CACACA"/>
</svg>
