<svg width="23" height="26" viewBox="0 0 23 26" fill="none" xmlns="http://www.w3.org/2000/svg">
<path d="M8.03157 23.9667V20.1445C8.03157 19.1688 8.80315 18.3779 9.75495 18.3779H13.2342C13.6913 18.3779 14.1296 18.564 14.4528 18.8953C14.776 19.2266 14.9576 19.676 14.9576 20.1445V23.9667C14.9547 24.3723 15.1099 24.7623 15.3887 25.0502C15.6674 25.3381 16.0468 25.5 16.4425 25.5H18.8162C19.9248 25.5029 20.989 25.0536 21.7739 24.251C22.5589 23.4485 23 22.3587 23 21.2223V10.3336C23 9.41558 22.603 8.5448 21.9161 7.95584L13.8412 1.34484C12.4365 0.185702 10.424 0.223128 9.06126 1.43372L1.17059 7.95584C0.451212 8.52744 0.0212475 9.40079 0 10.3336V21.2112C0 23.5798 1.87315 25.5 4.18379 25.5H6.5033C7.32517 25.5 7.9931 24.8203 7.99906 23.9778L8.03157 23.9667Z" fill="#F62A43"/>
</svg>
