<svg width="20" height="20" viewBox="0 0 20 20" fill="none" xmlns="http://www.w3.org/2000/svg">
<path d="M6.66671 1.66699H13.3334C16.6667 1.66699 18.3334 3.33366 18.3334 6.66699V17.5003C18.3334 17.9587 17.9584 18.3337 17.5 18.3337H6.66671C3.33337 18.3337 1.66671 16.667 1.66671 13.3337V6.66699C1.66671 3.33366 3.33337 1.66699 6.66671 1.66699Z" fill="#3998F3"/>
<path d="M11.6023 5.90216C11.9127 5.69457 12.279 6.07351 12.0609 6.37688L10.4296 8.65025C10.376 8.72528 10.3484 8.81571 10.3509 8.90785C10.3533 8.99999 10.3857 9.08882 10.4432 9.16088L11.7232 10.7784C11.8142 10.8932 11.8804 11.0255 11.9176 11.1671C11.9549 11.3087 11.9624 11.4565 11.9397 11.6011C11.917 11.7457 11.8645 11.8841 11.7857 12.0075C11.7069 12.1308 11.6033 12.2365 11.4816 12.3179L8.24575 14.48C7.93466 14.6876 7.56833 14.3086 7.7857 14.0053L9.41845 11.7319C9.47201 11.6569 9.49965 11.5664 9.49719 11.4743C9.49473 11.3821 9.46231 11.2933 9.40483 11.2212L8.12483 9.60369C8.03388 9.48895 7.9677 9.35662 7.93044 9.21503C7.89319 9.07345 7.88568 8.92567 7.90838 8.78104C7.93108 8.6364 7.98351 8.49804 8.06235 8.37467C8.14119 8.25131 8.24474 8.14562 8.36646 8.06427L11.6023 5.90216Z" fill="white"/>
</svg>
