<svg width="20" height="20" viewBox="0 0 20 20" fill="none" xmlns="http://www.w3.org/2000/svg">
<g clip-path="url(#clip0_173_2742)">
<path d="M10 20C15.5228 20 20 15.5228 20 10C20 4.47715 15.5228 0 10 0C4.47715 0 0 4.47715 0 10C0 15.5228 4.47715 20 10 20Z" fill="#FFBF0B"/>
<path d="M10 20C15.5228 20 20 15.5228 20 10C20 4.47715 15.5228 0 10 0C4.47715 0 0 4.47715 0 10C0 15.5228 4.47715 20 10 20Z" fill="#FFBF0B"/>
<path d="M10 14.375C8.625 14.375 7.5 13.25 7.5 11.875V10.625C7.5 10.2812 7.78125 10 8.125 10H11.875C12.2188 10 12.5 10.2812 12.5 10.625V11.875C12.5 13.25 11.375 14.375 10 14.375Z" fill="#1A1A54"/>
<path d="M10 14.375C10.8438 14.375 11.5938 13.9687 12.0312 13.3125C11.5625 12.6875 10.8438 12.2812 10 12.2812C9.15625 12.2812 8.4375 12.6875 7.96875 13.3125C8.40625 13.9687 9.15625 14.375 10 14.375Z" fill="#DC2863"/>
<path d="M18.7188 6.12489C19.2812 5.03114 19.2812 3.78114 18.4062 2.90614C17.5312 2.03114 15.7812 2.18739 15.1875 3.43739C14.625 2.18739 12.875 2.03114 12 2.90614C11.125 3.78114 11 4.87489 11.5625 6.03114C12.5312 8.03114 14.25 8.99989 14.9375 9.31239C15.125 9.40614 15.3125 9.40614 15.4687 9.31239C16.125 8.96864 17.7812 7.96864 18.7188 6.12489Z" fill="#DC2863"/>
<path d="M8.40625 6.12489C8.96875 5.03114 8.96875 3.78114 8.09375 2.90614C7.21875 2.03114 5.46875 2.18739 4.875 3.43739C4.3125 2.18739 2.5625 2.03114 1.6875 2.90614C0.812499 3.78114 0.687499 4.87489 1.25 6.03114C2.21875 8.03114 3.9375 8.99989 4.625 9.31239C4.8125 9.40614 5 9.40614 5.15625 9.31239C5.8125 8.96864 7.46875 7.96864 8.40625 6.12489Z" fill="#DC2863"/>
</g>
<defs>
<clipPath id="clip0_173_2742">
<rect width="20" height="20" fill="white"/>
</clipPath>
</defs>
</svg>
