<svg width="16" height="16" viewBox="0 0 16 16" fill="none" xmlns="http://www.w3.org/2000/svg">
<path d="M5.08667 2.38044C5.20626 2.31521 5.33334 2.41556 5.33334 2.55179V11.5737C5.33334 11.7316 5.22527 11.8648 5.08667 11.9404L3.52001 12.8338C2.42667 13.4604 1.52667 12.9404 1.52667 11.6738V5.18711C1.52667 4.76711 1.82667 4.24711 2.20001 4.03378L5.08667 2.38044Z" fill="#F62A43"/>
<path d="M9.7219 4.02139C9.89223 4.10574 10 4.27938 10 4.46945V12.8695C10 13.238 9.61495 13.4799 9.28298 13.3199L6.78298 12.1155C6.60998 12.0321 6.5 11.857 6.5 11.665V3.23136C6.5 2.8605 6.88956 2.61871 7.2219 2.78329L9.7219 4.02139Z" fill="#F62A43"/>
<path d="M14.6667 4.32606V10.8127C14.6667 11.2327 14.3667 11.7527 13.9933 11.9661L11.9153 13.157C11.582 13.3481 11.1667 13.1074 11.1667 12.7232V4.31638C11.1667 4.13687 11.2629 3.97113 11.4188 3.88214L12.6733 3.16606C13.7667 2.53939 14.6667 3.05939 14.6667 4.32606Z" fill="#F62A43"/>
</svg>
