<svg width="16" height="16" viewBox="0 0 16 16" fill="none" xmlns="http://www.w3.org/2000/svg">
<path d="M13.7467 5.63268C13.0467 2.55268 10.36 1.16602 8 1.16602C8 1.16602 8 1.16602 7.99334 1.16602C5.64 1.16602 2.94667 2.54602 2.24667 5.62602C1.46667 9.06601 3.57334 11.9793 5.48 13.8127C6.18667 14.4927 7.09334 14.8327 8 14.8327C8.90667 14.8327 9.81334 14.4927 10.5133 13.8127C12.42 11.9793 14.5267 9.07268 13.7467 5.63268ZM8 8.97268C6.84 8.97268 5.9 8.03268 5.9 6.87268C5.9 5.71268 6.84 4.77268 8 4.77268C9.16 4.77268 10.1 5.71268 10.1 6.87268C10.1 8.03268 9.16 8.97268 8 8.97268Z" fill="#F62A43"/>
</svg>
