<svg width="26" height="26" viewBox="0 0 26 26" fill="none" xmlns="http://www.w3.org/2000/svg">
<path d="M9.92334 11.7758C9.815 11.765 9.685 11.765 9.56584 11.7758C6.9875 11.6892 4.94 9.57666 4.94 6.97666C4.94 4.32249 7.085 2.16666 9.75 2.16666C12.4042 2.16666 14.56 4.32249 14.56 6.97666C14.5492 9.57666 12.5017 11.6892 9.92334 11.7758Z" stroke="#C2C2C2" stroke-width="2" stroke-linecap="round" stroke-linejoin="round"/>
<path d="M17.7775 4.33334C19.8792 4.33334 21.5692 6.03418 21.5692 8.12501C21.5692 10.1725 19.9442 11.8408 17.9183 11.9167C17.8317 11.9058 17.7342 11.9058 17.6367 11.9167" stroke="#C2C2C2" stroke-width="2" stroke-linecap="round" stroke-linejoin="round"/>
<path d="M4.50666 16.7733C1.885 18.5283 1.885 21.3883 4.50666 23.1325C7.48583 25.1258 12.3717 25.1258 15.3508 23.1325C17.9725 21.3775 17.9725 18.5175 15.3508 16.7733C12.3825 14.7908 7.49666 14.7908 4.50666 16.7733Z" stroke="#C2C2C2" stroke-width="2" stroke-linecap="round" stroke-linejoin="round"/>
<path d="M19.8683 22.6667C20.6483 22.5042 21.385 22.19 21.9917 21.7242C23.6817 20.4567 23.6817 18.3658 21.9917 17.0983C21.3958 16.6433 20.67 16.34 19.9008 16.1667" stroke="#C2C2C2" stroke-width="2" stroke-linecap="round" stroke-linejoin="round"/>
</svg>
