<svg width="22" height="18" viewBox="0 0 22 18" fill="none" xmlns="http://www.w3.org/2000/svg">
<path d="M4.62734 3.47998C4.31191 3.83691 4.35342 4.27686 4.68545 4.50928C5.00918 4.7417 5.39931 4.66699 5.67324 4.35986C6.96816 2.88232 8.87734 1.94434 11.0023 1.94434C14.6132 1.94434 17.56 4.62549 17.9916 8.12012H16.7548C16.1654 8.12012 16.016 8.51855 16.3314 8.9751L18.1908 11.623C18.4564 12.0049 18.8549 12.0132 19.1288 11.623L20.9799 8.9834C21.3119 8.51855 21.1542 8.12012 20.5565 8.12012H19.4193C18.9628 3.89502 15.327 0.533203 11.0023 0.533203C8.4706 0.533203 6.18789 1.67871 4.62734 3.47998ZM1.0165 9.0249C0.69277 9.48145 0.842184 9.88818 1.43984 9.88818H2.58535C3.03359 14.1133 6.67763 17.4668 11.0023 17.4668C13.5341 17.4668 15.8251 16.313 17.3856 14.52C17.6928 14.1631 17.6513 13.7148 17.3275 13.4824C17.0038 13.25 16.6054 13.333 16.3397 13.6401C15.0531 15.126 13.1439 16.0557 11.0023 16.0557C7.3832 16.0557 4.43642 13.3745 4.01308 9.88818H5.2499C5.83925 9.88818 5.98867 9.48145 5.67324 9.0332L3.81386 6.38525C3.54824 6.00342 3.1498 5.99512 2.87588 6.38525L1.0165 9.0249Z" fill="#F62A43"/>
</svg>
