<svg width="36" height="36" viewBox="0 0 36 36" fill="none" xmlns="http://www.w3.org/2000/svg">
<path d="M33.15 16.9472V16.958V16.9621V16.9662V16.9703V16.9745V16.9786V16.9827V16.9868V16.9909V16.995V16.9991V17.0033V17.0074V17.0115V17.0156V17.0197V17.0238V17.028V17.0321V17.0362V17.0403V17.0444V17.0485V17.0526V17.0568V17.0609V17.065V17.0691V17.0732V17.0773V17.0814V17.0856V17.0897V17.0938V17.0979V17.102V17.1061V17.1102V17.1144V17.1185V17.1226V17.1267V17.1308V17.1349V17.1391V17.1432V17.1473V17.1514V17.1555V17.1596V17.1637V17.1679V17.172V17.1761V17.1802V17.1843V17.1884V17.1926V17.1967V17.2008V17.2049V17.209V17.2131V17.2172V17.2214V17.2255V17.2296V17.2337V17.2378V17.2419V17.2461V17.2502V17.2543V17.2584V17.2625V17.2666V17.2707V17.2749V17.279V17.2831V17.2872V17.2913V17.2954V17.2996V17.3037V17.3078V17.3119V17.316V17.3201V17.3243V17.3284V17.3325V17.3366V17.3407V17.3448V17.3489V17.3531V17.3572V17.3613V17.3654V17.3695V17.3736V17.3778V17.3819V17.386V17.3901V17.3942V17.3983V17.4025V17.4066V17.4107V17.4148V17.4189V17.423V17.4272V17.4313V17.4354V17.4395V17.4436V17.4477V17.4518V17.456V17.4601V17.4642V17.4683V17.4724V17.4765V17.4807V17.4848V17.4889V17.493V17.4971V17.5012V17.5054V17.5095V17.5136V17.5177V17.5218V17.5259V17.5301V17.5342V17.5383V17.5424V17.5465V17.5506V17.5548V17.5589V17.563V17.5671V17.5712V17.5753V17.5795V17.5836V17.5877V17.5918V17.5959V17.6V17.6041V17.6083V17.6124V17.6165V17.6206V17.6247V17.6288V17.633V17.6371V17.6412V17.6453V17.6494V17.6535V17.6577V17.6618V17.6659V17.67V17.6741V17.6782V17.6824V17.6865V17.6906V17.6947V17.6988V17.7029V17.7071V17.7112V17.7153V17.7194V17.7235V17.7276V17.7318V17.7359V17.74V17.7441V17.7482V17.7523V17.7565V17.7606V17.7647V17.7688V17.7729V17.777V17.7812V17.7853V17.7894V17.7935V17.7976V17.8017V17.8059V17.81V17.8141V17.8182V17.8223V17.8264V17.8306V17.8347V17.8388V17.8429V17.847V17.8511V17.8553V17.8594V17.8635V17.8676V17.8717V17.8758V17.88V17.8841V17.8882V17.8923V17.8964V17.9005V17.9047V17.9088V17.9129V17.917V17.9211V17.9252V17.9294V17.9335V17.9376V17.9417V17.9458V17.9499V17.9541V17.9582V17.9623V17.9664V17.9705V17.9746V17.9788V17.9829V17.987V17.9911V17.9952V17.9993V18.0035V18.0076V18.0117V18.0158V18.0199V18.024V18.0282V18.0323V18.0364V18.0405V18.0446V18.0487V18.0529V18.057V18.0611V18.0652V18.0693V18.0735V18.0776V18.0817V18.0858V18.0899V18.094V18.0982V18.1023V18.1064V18.1105V18.1146V18.1187V18.1229V18.127V18.1311V18.1352V18.1393V18.1434V18.1476V18.1517V18.1558V18.1599V18.164V18.1681V18.1723V18.1764V18.1805V18.1846V18.1887V18.1928V18.197V18.2011V18.2052V18.2093V18.2134V18.2175V18.2217V18.2258V18.2299V18.234V18.2381V18.2422V18.2464V18.2505V18.2546V18.2587V18.2628V18.2669V18.2711V18.2752V18.2793V18.2834V18.2875V18.2916V18.2958V18.2999V18.304V18.3081V18.3122V18.3163V18.3205V18.3246V18.3287V18.3328V18.3369V18.341V18.3452V18.3493V18.3534V18.3575V18.3616V18.3657V18.3699V18.374V18.3781V18.3822V18.3863V18.3904V18.3945V18.3987V18.4028V18.4069V18.411V18.4151V18.4192V18.4234V18.4275V18.4316V18.4357V18.4398V18.4439V18.4481V18.4522V18.4563V18.4604V18.4645V18.4686V18.4728V18.4769V18.481V18.4851V18.4892V18.4933V18.4975V18.5016V18.5057V18.5098V18.5139V18.518V18.5222V18.5263V18.5304V18.5345V18.5386V18.5427V18.5469V18.551V18.5551V18.5592V18.5633V18.5674V18.5715V18.5757V18.5798V18.5839V18.588V18.5921V18.5962V18.6004V18.6045V18.6086V18.6127V18.6168V18.6209V18.6251V18.6292V18.6333V18.6374V18.6415V18.6456V18.6498V18.6539V18.658V18.6621V18.6662V18.6703V18.6744V18.6786V18.6827V18.6868V18.6909V18.695V18.6991V18.7033V18.7074V18.7115V18.7156V18.7197V18.7238V18.728V18.7321V18.7362V18.7403V18.7444V18.7485V18.7526V18.7568V18.7609V18.765V18.7691V18.7732V18.7773V18.7815V18.7856V18.7897V18.7938V18.7979V18.802V18.8062V18.8103V18.8144V18.8185V18.8226V18.8267V18.8308V18.835V18.8391V18.8432V18.8473V18.8514V18.8555V18.8597V18.8638V18.8679V18.872V18.8761V18.8802V18.8843V18.8885V18.8926V18.8967V18.9008V18.9049V18.909V18.9131V18.9173V18.9214V18.9255V18.9296V18.9337V18.9378V18.942V18.9461V18.9502V18.9543V18.9584V18.9625V18.9666V18.9708V18.9749V18.979V18.9831V18.9872V18.9913V18.9954V18.9996V19.0037V19.0078V19.0119V19.016V19.0201V19.0243V19.0284V19.0325V19.0366V19.0407V19.0448V19.0489V19.0531V19.0572V19.0613V19.0654V19.0839L33.1455 19.1018C33.1388 19.1288 33.1295 19.1597 33.1218 19.1858C33.1182 19.198 33.1148 19.2091 33.1122 19.2182L33.15 16.9472ZM33.15 16.9472L33.1484 16.9365M33.15 16.9472L33.1484 16.9365M33.1484 16.9365C33.1249 16.7741 33.1033 16.6092 33.0816 16.443C33.0339 16.0777 32.9854 15.7066 32.9132 15.3437L32.9132 15.3436C31.8297 9.91946 28.7402 6.04461 23.6305 3.96514C15.1136 0.498953 5.55738 5.43181 3.30525 14.34L3.30525 14.34C1.23987 22.5125 6.40856 30.9431 14.6206 32.7742L14.6207 32.7742C15.0873 32.878 15.5685 32.9406 16.0419 33.0022C16.2666 33.0315 16.4896 33.0605 16.7084 33.0936L16.7094 33.0937C16.7525 33.0999 16.7896 33.1104 16.8354 33.1232C16.8597 33.13 16.8865 33.1375 16.9179 33.1454L16.9359 33.15H16.9546H16.9587H16.9628H16.9669H16.971H16.9752H16.9793H16.9834H16.9875H16.9916H16.9957H16.9999H17.004H17.0081H17.0122H17.0163H17.0204H17.0246H17.0287H17.0328H17.0369H17.041H17.0451H17.0493H17.0534H17.0575H17.0616H17.0657H17.0698H17.0739H17.0781H17.0822H17.0863H17.0904H17.0945H17.0986H17.1028H17.1069H17.111H17.1151H17.1192H17.1233H17.1275H17.1316H17.1357H17.1398H17.1439H17.148H17.1522H17.1563H17.1604H17.1645H17.1686H17.1727H17.1769H17.181H17.1851H17.1892H17.1933H17.1975H17.2016H17.2057H17.2098H17.2139H17.218H17.2222H17.2263H17.2304H17.2345H17.2386H17.2427H17.2469H17.251H17.2551H17.2592H17.2633H17.2674H17.2716H17.2757H17.2798H17.2839H17.288H17.2921H17.2963H17.3004H17.3045H17.3086H17.3127H17.3168H17.321H17.3251H17.3292H17.3333H17.3374H17.3415H17.3457H17.3498H17.3539H17.358H17.3621H17.3663H17.3704H17.3745H17.3786H17.3827H17.3868H17.391H17.3951H17.3992H17.4033H17.4074H17.4115H17.4157H17.4198H17.4239H17.428H17.4321H17.4363H17.4404H17.4445H17.4486H17.4527H17.4568H17.461H17.4651H17.4692H17.4733H17.4774H17.4815H17.4857H17.4898H17.4939H17.498H17.5021H17.5063H17.5104H17.5145H17.5186H17.5227H17.5268H17.531H17.5351H17.5392H17.5433H17.5474H17.5515H17.5557H17.5598H17.5639H17.568H17.5721H17.5763H17.5804H17.5845H17.5886H17.5927H17.5968H17.601H17.6051H17.6092H17.6133H17.6174H17.6216H17.6257H17.6298H17.6339H17.638H17.6421H17.6463H17.6504H17.6545H17.6586H17.6627H17.6668H17.671H17.6751H17.6792H17.6833H17.6874H17.6916H17.6957H17.6998H17.7039H17.708H17.7121H17.7163H17.7204H17.7245H17.7286H17.7327H17.7369H17.741H17.7451H17.7492H17.7533H17.7574H17.7616H17.7657H17.7698H17.7739H17.778H17.7822H17.7863H17.7904H17.7945H17.7986H17.8027H17.8069H17.811H17.8151H17.8192H17.8233H17.8275H17.8316H17.8357H17.8398H17.8439H17.848H17.8522H17.8563H17.8604H17.8645H17.8686H17.8728H17.8769H17.881H17.8851H17.8892H17.8933H17.8975H17.9016H17.9057H17.9098H17.9139H17.9181H17.9222H17.9263H17.9304H17.9345H17.9386H17.9428H17.9469H17.951H17.9551H17.9592H17.9634H17.9675H17.9716H17.9757H17.9798H17.9839H17.9881H17.9922H17.9963H18.0004H18.0045H18.0087H18.0128H18.0169H18.021H18.0251H18.0292H18.0334H18.0375H18.0416H18.0457H18.0498H18.054H18.0581H18.0622H18.0663H18.0704H18.0745H18.0787H18.0828H18.0869H18.091H18.0951H18.0993H18.1034H18.1075H18.1116H18.1157H18.1198H18.124H18.1281H18.1322H18.1363H18.1404H18.1446H18.1487H18.1528H18.1569H18.161H18.1651H18.1693H18.1734H18.1775H18.1816H18.1857H18.1899H18.194H18.1981H18.2022H18.2063H18.2104H18.2146H18.2187H18.2228H18.2269H18.231H18.2352H18.2393H18.2434H18.2475H18.2516H18.2557H18.2599H18.264H18.2681H18.2722H18.2763H18.2805H18.2846H18.2887H18.2928H18.2969H18.301H18.3052H18.3093H18.3134H18.3175H18.3216H18.3258H18.3299H18.334H18.3381H18.3422H18.3463H18.3505H18.3546H18.3587H18.3628H18.3669H18.3711H18.3752H18.3793H18.3834H18.3875H18.3916H18.3958H18.3999H18.404H18.4081H18.4122H18.4164H18.4205H18.4246H18.4287H18.4328H18.4369H18.4411H18.4452H18.4493H18.4534H18.4575H18.4616H18.4658H18.4699H18.474H18.4781H18.4822H18.4864H18.4905H18.4946H18.4987H18.5028H18.5069H18.5111H18.5152H18.5193H18.5234H18.5275H18.5316H18.5358H18.5399H18.544H18.5481H18.5522H18.5564H18.5605H18.5646H18.5687H18.5728H18.5769H18.5811H18.5852H18.5893H18.5934H18.5975H18.6016H18.6058H18.6099H18.614H18.6181H18.6222H18.6264H18.6305H18.6346H18.6387H18.6428H18.6469H18.6511H18.6552H18.6593H18.6634H18.6675H18.6716H18.6758H18.6799H18.684H18.6881H18.6922H18.6963H18.7005H18.7046H18.7087H18.7128H18.7169H18.7211H18.7252H18.7293H18.7334H18.7375H18.7416H18.7458H18.7499H18.754H18.7581H18.7622H18.7663H18.7705H18.7746H18.7787H18.7828H18.7869H18.791H18.7952H18.7993H18.8034H18.8075H18.8116H18.8157H18.8199H18.824H18.8281H18.8322H18.8363H18.8404H18.8446H18.8487H18.8528H18.8569H18.861H18.8651H18.8693H18.8734H18.8775H18.8816H18.8857H18.8898H18.894H18.8981H18.9022H18.9063H18.9104H18.9145H18.9187H18.9228H18.9269H18.931H18.9351H18.9392H18.9434H18.9475H18.9516H18.9557H18.9598H18.9639H18.9681H18.9722H18.9763H18.9804H18.9845H18.9886H18.9928H18.9969H19.001H19.0051H19.0092H19.0133H19.0175H19.0216H19.0257H19.0298H19.0339H19.038H19.0422H19.0463H19.0504H19.0545H19.0586H19.0627H19.0735L19.0842 33.1485C19.2432 33.1254 19.4038 33.1037 19.5653 33.0819C19.9243 33.0334 20.2873 32.9844 20.6447 32.9192L20.6178 32.7717M33.1484 16.9365L20.6178 32.7717M20.6178 32.7717L20.6447 32.9192C24.8227 32.1574 28.1134 29.9982 30.5292 26.5274L30.4061 26.4417L30.5292 26.5273C32.0382 24.3591 32.8799 21.9368 33.0947 19.3022L20.6178 32.7717ZM17.9969 4.92969C25.1979 4.91191 31.0768 10.7773 31.0939 17.9992C31.1109 25.1991 25.2442 31.0767 18.0204 31.0937C10.8217 31.1115 4.93971 25.2422 4.92424 18.0235C4.90954 10.8227 10.7739 4.94747 17.9969 4.92969Z" fill="white" stroke="white" stroke-width="0.3"/>
<path d="M10.5951 21.0007C15.5469 22.9927 20.4995 22.9906 25.4555 21C25.6798 23.2862 25.0844 25.2916 23.0329 26.83C20.8589 28.4604 18.3221 28.9161 15.5761 28.1128C12.88 27.3243 11.2414 25.67 10.6901 23.3115C10.5192 22.5806 10.5575 21.8152 10.5 21.066C10.5317 21.0442 10.5634 21.0225 10.5951 21.0007ZM23.3824 23.3915C19.7907 24.31 16.2257 24.3036 12.6473 23.3901C13.1444 25.1912 15.3192 26.9585 18.1962 26.8855C20.9648 26.816 22.9679 25.0311 23.3824 23.3915Z" fill="white"/>
<path d="M13.3047 18C12.2739 17.4449 11.2733 16.9067 10.2727 16.3678C9.76352 16.0936 9.24891 15.8275 8.74668 15.5439C7.78246 15.0003 7.34446 14.1039 7.54953 13.1243C7.73835 12.2226 8.54857 11.5084 9.6397 11.3161C10.111 11.2335 10.6488 11.1929 11.5736 11.6174C11.928 11.1516 12.3869 10.7942 13.0106 10.6181C14.0607 10.3216 15.1913 10.5944 15.8692 11.3114C16.5804 12.0642 16.7135 13.0952 16.1493 13.9367C15.4521 14.9773 14.7131 15.9961 13.9918 17.0238C13.769 17.3399 13.5469 17.6554 13.3047 18ZM12.732 15.8973C13.3728 14.9861 14.0073 14.1107 14.6001 13.2144C14.7154 13.0397 14.727 12.7737 14.6837 12.5665C14.6194 12.2605 14.347 12.0831 13.9903 12.0391C13.5987 11.9904 13.29 12.1183 13.0795 12.4115C12.7684 12.8454 12.4635 13.2834 12.1454 13.7357C12.0131 13.6659 11.8986 13.607 11.7848 13.5468C11.3739 13.3281 10.9707 13.0959 10.5498 12.8928C10.121 12.6863 9.61262 12.8231 9.36963 13.1819C9.1336 13.5312 9.22492 13.9949 9.62036 14.2143C10.6426 14.7823 11.6803 15.3306 12.732 15.8973Z" fill="white"/>
<path d="M24.4241 11.6365C25.2688 11.2128 26.1235 11.1511 26.9899 11.5048C28.8046 12.2456 29.046 14.4944 27.3743 15.4776C25.8706 16.3616 24.298 17.156 22.7555 17.9891C22.7408 17.9973 22.7184 17.9952 22.6867 18C22.6612 17.9722 22.6279 17.943 22.6031 17.9083C21.6942 16.6115 20.7691 15.3228 19.8841 14.013C19.0441 12.7704 19.6366 11.2285 21.128 10.6798C22.2558 10.2657 23.5554 10.5848 24.2748 11.4532C24.3196 11.5082 24.3637 11.5632 24.4241 11.6365ZM23.2622 15.9209C24.3127 15.3519 25.3484 14.7999 26.3726 14.2309C26.6727 14.0639 26.7903 13.7896 26.7331 13.4807C26.6263 12.9035 25.9503 12.6374 25.3631 12.9409C24.8588 13.2016 24.3645 13.4766 23.8493 13.7543C23.5283 13.2973 23.2282 12.856 22.9118 12.4235C22.624 12.0303 22.1104 11.9231 21.6788 12.1498C21.258 12.3705 21.1172 12.8451 21.3848 13.2349C21.9959 14.1243 22.6217 15.0063 23.2622 15.9209Z" fill="white"/>
</svg>
