<svg width="18" height="18" viewBox="0 0 18 18" fill="none" xmlns="http://www.w3.org/2000/svg">
<path fill-rule="evenodd" clip-rule="evenodd" d="M9.54524 0.355145L11.8554 5.25975C11.9403 5.44502 12.112 5.57574 12.3132 5.60827L17.4787 6.39476C17.7123 6.44004 17.902 6.61009 17.9724 6.83729C18.0429 7.06449 17.9827 7.31203 17.8157 7.48148L14.0779 11.2992C13.9335 11.4488 13.8687 11.658 13.903 11.8631L14.7854 17.2538C14.8335 17.4855 14.7443 17.7243 14.556 17.8677C14.3677 18.011 14.1137 18.0335 13.9032 17.9254L9.28294 15.3803C9.10693 15.2827 8.89307 15.2827 8.71706 15.3803L4.09683 17.9254C3.88627 18.0335 3.63235 18.011 3.44403 17.8677C3.25571 17.7243 3.16647 17.4855 3.21461 17.2538L4.09699 11.8631C4.13132 11.658 4.06645 11.4488 3.92212 11.2992L0.184282 7.48148C0.0173574 7.31202 -0.0428461 7.06449 0.0276058 6.8373C0.0980576 6.6101 0.287747 6.44006 0.521264 6.39478L5.68683 5.60827C5.88802 5.57574 6.05973 5.44502 6.14464 5.25976L8.45475 0.355145C8.55017 0.13926 8.76397 0 9 0C9.23603 0 9.44983 0.13926 9.54524 0.355145Z" fill="#F6AB27"/>
<path fill-rule="evenodd" clip-rule="evenodd" d="M11.2935 4.06861C9.80351 4.86528 8.42769 5.85905 7.20311 7.0231C5.89795 8.27256 4.79076 9.71358 3.91966 11.2965L0.183135 7.48241C0.0162174 7.31285 -0.0438241 7.06518 0.0269144 6.838C0.0976529 6.61083 0.287688 6.44103 0.521361 6.3962L5.68554 5.60792C5.88645 5.57456 6.05815 5.44462 6.14485 5.26034L8.4538 0.353787C8.55025 0.138533 8.76413 0 9 0C9.23588 0 9.44976 0.138533 9.54621 0.353787L11.2935 4.06861Z" fill="#F4CD1E"/>
</svg>
