<svg width="30" height="29" viewBox="0 0 30 29" fill="none" xmlns="http://www.w3.org/2000/svg">
<path d="M29.8889 11.125C29.6292 10.3904 28.9627 9.85259 28.1601 9.73584L20.3543 8.59767L16.9613 1.68964C16.6041 0.96427 15.8401 0.499996 15 0.499996C14.16 0.499996 13.3959 0.96427 13.0387 1.68964L9.64579 8.59767L1.83898 9.73584C1.03739 9.85259 0.370811 10.3904 0.112052 11.125C-0.145768 11.8614 0.0492379 12.6723 0.615506 13.2257L6.33631 18.8264L5.00971 26.5959C4.8747 27.3783 5.22065 28.1634 5.89849 28.6212C6.27069 28.8722 6.70851 29 7.14634 29C7.50635 29 7.8673 28.9136 8.1945 28.7417L15 25.1488L21.8065 28.7417C22.1337 28.9136 22.4946 29 22.8537 29C23.2915 29 23.7294 28.8722 24.1025 28.6212C24.7803 28.1634 25.1244 27.3783 24.9903 26.5959L23.6628 18.8264L29.3855 13.2257C29.9508 12.6713 30.1449 11.8605 29.8889 11.125ZM22.114 17.3821C21.634 17.851 21.4165 18.512 21.5262 19.1601L22.8537 26.9296L16.0473 23.3386C15.721 23.1658 15.361 23.0803 14.9991 23.0803C14.6391 23.0803 14.2781 23.1667 13.9519 23.3386L7.1454 26.9296L8.47294 19.1601C8.58357 18.512 8.36607 17.851 7.88605 17.3821L2.16524 11.7814L9.97112 10.6414C10.6846 10.5375 11.2987 10.0999 11.6052 9.47566L15 2.56946L18.3939 9.47658C18.7014 10.1008 19.3145 10.5375 20.0271 10.6423L27.8348 11.7823L22.114 17.3821Z" fill="white"/>
</svg>
