<svg width="24" height="24" viewBox="0 0 24 24" fill="none" xmlns="http://www.w3.org/2000/svg">
<path d="M13.9466 4.07896C14.2238 4.21218 14.4 4.49248 14.4 4.8V13.2687L15.2507 14.1193C15.2805 14.0397 15.3236 13.9635 15.3804 13.8939C15.7465 13.4457 16 12.7766 16 12C16 11.2235 15.7465 10.5543 15.3804 10.1061C15.1009 9.76388 15.1518 9.25991 15.494 8.98042C15.8362 8.70092 16.3401 8.75176 16.6196 9.09395C17.2392 9.85245 17.6 10.8876 17.6 12C17.6 13.1124 17.2392 14.1476 16.6196 14.9061C16.5268 15.0199 16.409 15.1014 16.2807 15.1493L17.1737 16.0424C17.9225 15.0065 18.4 13.5883 18.4 12C18.4 10.279 17.8393 8.75767 16.9804 7.70608C16.7009 7.36388 16.7518 6.85991 17.094 6.58042C17.4362 6.30092 17.9401 6.35176 18.2196 6.69395C19.332 8.05581 20 9.94312 20 12C20 13.9966 19.3706 15.8334 18.3163 17.185L19.7657 18.6343C20.0781 18.9467 20.0781 19.4533 19.7657 19.7657C19.4532 20.0781 18.9468 20.0781 18.6343 19.7657L4.23431 5.3657C3.9219 5.05328 3.9219 4.54676 4.23431 4.23433C4.54673 3.92192 5.05326 3.92192 5.36568 4.23433L8.33136 7.2H9.03879C9.22045 7.2 9.3967 7.13818 9.53854 7.0247L13.1003 4.17532C13.3404 3.9832 13.6694 3.94575 13.9466 4.07896Z" fill="white"/>
<path d="M4.95338 7.68481L14.4 17.1314V19.2C14.4 19.5075 14.2238 19.7878 13.9466 19.921C13.6694 20.0542 13.3404 20.0168 13.1002 19.8247L9.5385 16.9753C9.39666 16.8618 9.22041 16.8 9.03875 16.8H6.4C5.07452 16.8 4 15.7254 4 14.4V9.6C4 8.81778 4.37422 8.12297 4.95338 7.68481Z" fill="white"/>
</svg>
