<svg width="24" height="24" viewBox="0 0 24 24" fill="none" xmlns="http://www.w3.org/2000/svg">
<path d="M11.3138 5C9.97815 5 10.382 7.20742 5.87473 8.44569C4.62862 8.78723 4 9.04484 4 10.3116V13.6899C4 14.9566 4.62862 15.2142 5.87473 15.5554C10.382 16.7938 9.97793 19 11.3138 19H11.894C12.5044 19 13 18.5168 13 17.9199V6.08111C13 5.48447 12.5044 5 11.894 5H11.3138Z" fill="white"/>
<path d="M15.7077 8.0001C15.1661 8.00859 14.8296 8.7954 15.095 9.43201C15.7302 11.0106 15.7302 12.9801 15.095 14.5598C14.8953 15.0283 15.0211 15.6258 15.373 15.8838C15.7248 16.141 16.1651 15.9566 16.3476 15.4756C17.2175 13.3147 17.2175 10.6753 16.3476 8.51387C16.2225 8.19438 15.9757 7.99491 15.7077 8.0001Z" fill="white"/>
<path d="M17.7648 6.00108C17.1204 6.03407 16.7741 6.86323 17.1645 7.4377C17.9331 8.60753 18.3975 10.2667 18.3975 12.004C18.3975 13.7413 17.9333 15.4016 17.1645 16.5703C16.9008 16.9693 16.9769 17.5323 17.3335 17.8257C17.6908 18.1193 18.1932 18.0333 18.4557 17.6332C19.463 16.0987 20 14.091 20 12.004C20 9.91791 19.463 7.91034 18.4557 6.37585C18.2967 6.1271 18.0378 5.98613 17.7648 6.00108Z" fill="white"/>
</svg>
